<?xml version="1.0" encoding="UTF-8" standalone="no"?>
<!DOCTYPE svg PUBLIC "-//W3C//DTD SVG 1.1//EN" "http://www.w3.org/Graphics/SVG/1.1/DTD/svg11.dtd">
<svg width="100%" height="100%" viewBox="0 0 645 705" version="1.1" xmlns="http://www.w3.org/2000/svg" xmlns:xlink="http://www.w3.org/1999/xlink" xml:space="preserve" xmlns:serif="http://www.serif.com/" style="fill-rule:evenodd;clip-rule:evenodd;stroke-linejoin:round;stroke-miterlimit:2;">
    <g transform="matrix(1,0,0,1,-178.764,-148.574)">
        <path d="M325.203,157.114C356.561,148.345 388.312,147.644 419.986,149.269C450.293,150.823 479.684,157.76 506.821,171.998C543.494,191.24 569.574,219.938 582.683,259.6C587.632,274.573 590.881,290.013 590.959,305.868C591.38,391.816 591.241,477.769 592.236,563.709C592.574,592.917 597.396,621.736 609.377,648.856C609.71,649.61 609.914,650.422 610.164,651.212C612.735,659.316 611.573,660.999 603.403,661C568.907,661.001 534.411,660.94 499.916,661.081C495.881,661.098 493.481,660.246 492.389,655.983C489.438,644.461 486.185,633.016 482.969,621.564C482.549,620.068 481.643,618.709 480.962,617.287C479.597,618.069 477.981,618.598 476.903,619.669C452.344,644.074 423.047,659.782 389.21,666.683C369.102,670.784 348.725,670.771 328.258,669.181C307.894,667.598 288.379,662.995 269.653,655.004C253.978,648.314 239.932,639.109 227.142,627.77C211.95,614.301 199.808,598.656 191.156,580.327C185.17,567.646 181.343,554.301 179.989,540.327C177.832,518.068 178.152,495.931 183.989,474.151C191.456,446.287 205.957,422.992 228.076,404.198C257.188,379.464 291.586,366.856 328.367,360.254C347.192,356.874 366.427,355.025 385.55,354.227C414.468,353.019 443.45,353.245 472.406,353.096C476.685,353.074 478.279,352.096 478.09,347.552C477.505,333.438 478.025,319.247 476.8,305.201C475.469,289.934 469.722,276.014 460.262,263.731C447.489,247.149 429.87,239.96 409.868,236.89C387.584,233.469 365.778,235.02 345.16,244.224C320.995,255.011 304.984,272.601 303.059,300.341C302.861,303.198 301.825,304.031 299.136,304.028C263.807,303.977 228.478,303.959 193.149,304.053C189.761,304.062 188.769,302.747 188.98,299.615C190.006,284.318 192.734,269.421 198.895,255.268C206.609,237.546 217.508,221.899 231.227,208.477C247.689,192.371 266.41,179.218 287.931,170.602C300.065,165.744 312.498,161.632 325.203,157.114M323.718,566.869C339.489,576.175 356.806,579.55 374.776,578.843C389.506,578.263 403.988,575.6 417.837,569.976C440.878,560.62 460.155,546.617 473.838,525.576C475.669,522.759 477.784,519.389 477.817,516.255C478.121,487.267 477.939,458.275 478.066,429.284C478.082,425.515 476.438,424.932 473.246,424.953C457.251,425.058 441.256,425.056 425.261,424.986C405.496,424.899 385.803,425.8 366.441,430.051C346.278,434.478 327.474,441.487 312.494,456.834C294.598,475.168 289.95,497.153 293.4,521.436C296.17,540.936 306.682,555.759 323.718,566.869Z" style="fill:var(--current)"/>
        <rect x="703.279" y="160.26" width="112.721" height="502.391" style="fill:var(--current)"/>
        <path d="M778.276,734.651C801.379,739.469 815.727,753.303 821.064,775.547C826.545,798.391 823.404,819.92 806.04,837.281C795.667,847.651 782.457,852.573 767.814,852.933C756.123,853.221 744.368,853.811 733.037,849.574C712,841.709 699.591,826.861 695.968,804.668C693.857,791.737 694.591,779.19 699.892,766.972C707.235,750.049 720.114,739.579 737.619,735.172C750.842,731.842 764.428,732.028 778.276,734.651Z" style="fill:var(--current)"/>
    </g>
</svg>
