<?xml version="1.0" encoding="UTF-8" standalone="no"?>
<!DOCTYPE svg PUBLIC "-//W3C//DTD SVG 1.1//EN" "http://www.w3.org/Graphics/SVG/1.1/DTD/svg11.dtd">
<svg width="100%" height="100%" viewBox="0 0 931 748" version="1.1" xmlns="http://www.w3.org/2000/svg" xmlns:xlink="http://www.w3.org/1999/xlink" xml:space="preserve" xmlns:serif="http://www.serif.com/" style="fill-rule:evenodd;clip-rule:evenodd;stroke-linejoin:round;stroke-miterlimit:2;">
    <g transform="matrix(1,0,0,1,-1,-48.9441)">
        <path d="M1,723.469C11.151,723 21.302,723 31.469,723C35.783,737.025 40.02,750.801 44.71,766.048C46.721,759.206 48.409,753.644 49.987,748.05C52.102,740.551 54.022,732.994 56.317,725.552C56.657,724.449 58.581,723.138 59.798,723.112C69.283,722.911 78.775,723.001 88.632,723.001L88.632,794.68L69.22,794.68L69.22,749.801C68.908,749.732 68.596,749.662 68.285,749.593C63.309,764.647 58.333,779.701 53.364,794.756C36.267,795.955 36.21,795.973 31.081,780.114C27.905,770.297 24.934,760.415 21.032,750.726L21.032,795L1.469,795C1,771.312 1,747.625 1,723.469Z" style="fill-rule:nonzero;"/>
        <path d="M402.466,796C398.581,795.332 395.144,794.744 391.747,793.98C380.614,791.478 375.079,784.504 375.01,772.869C374.958,764.046 374.972,755.222 375.007,746.399C375.054,734.356 380.104,727.519 391.803,724.697C403.979,721.761 416.392,722.041 428.579,724.398C437.559,726.135 441.825,734.392 440.59,746L421.493,746C417.858,738.848 402.692,735.798 398.206,741.806C395.744,745.103 395.362,750.386 395.154,754.825C394.876,760.717 395.298,766.722 396.234,772.548C396.561,774.581 399.048,777.387 400.994,777.815C405.576,778.821 410.554,779.408 415.132,778.674C420.225,777.857 420.38,772.82 421.181,768.145L408.308,768.145L408.308,754.266L441.45,754.266C440.939,763.358 441.023,772.293 439.784,781.041C438.521,789.958 431.797,794.61 421.836,795.003C420.346,795.062 418.857,795.165 417.184,795.624C412.311,796 407.621,796 402.466,796Z" style="fill-rule:nonzero;"/>
        <path d="M653.466,796C649.747,795.336 646.483,794.72 643.243,793.999C630.559,791.174 627.79,787.518 626.371,775.318C625.047,763.931 626.467,752.193 627.034,740.627C627.498,731.16 633.908,725.533 642.209,724.67C654.553,723.386 667.211,723.377 679.569,724.564C688.564,725.428 692.82,734.383 691.62,745.735C685.222,745.735 678.79,745.735 672.357,745.733C668.834,738.801 654.142,735.843 649.18,741.811C646.783,744.693 646.318,749.706 646.155,753.802C645.907,760.031 646.315,766.356 647.233,772.523C647.535,774.551 650.028,777.381 651.969,777.809C656.55,778.821 661.524,779.396 666.111,778.684C671.252,777.886 671.324,772.812 672.24,768.162L659.314,768.162L659.314,754.271L692.447,754.271C691.939,763.351 692.023,772.287 690.786,781.036C689.525,789.956 682.801,794.61 672.836,795.003C671.346,795.062 669.858,795.165 668.184,795.624C663.311,796 658.622,796 653.466,796Z" style="fill-rule:nonzero;"/>
        <path d="M123.463,796C120.08,795.336 117.167,794.637 114.238,794.013C102.595,791.531 97.384,784.181 97.05,772.452C96.799,763.631 96.938,754.797 97.017,745.97C97.1,736.762 101.17,727.315 112.73,724.705C124.125,722.133 135.591,721.873 146.945,724.529C157.285,726.947 162.167,734.835 162.752,744.538C163.407,755.395 162.854,766.4 161.904,777.26C160.8,789.892 151.503,793.492 140.835,794.983C139.363,795.188 137.858,795.165 136.184,795.624C131.975,796 127.951,796 123.463,796M117,756.561C117,759.717 116.901,762.876 117.02,766.028C117.341,774.525 119.421,777.575 125.286,777.96C128.428,778.166 131.626,778.273 134.742,777.921C138.007,777.551 141.684,776.475 141.856,772.583C142.237,763.943 142.229,755.262 141.792,746.628C141.694,744.697 139.569,741.989 137.706,741.171C125.712,735.907 117.001,741.698 117,754.597C117,754.929 117,755.261 117,756.561Z" style="fill-rule:nonzero;"/>
        <path d="M829.021,321.835C832.686,334.897 836.421,347.515 839.963,360.187C844.717,377.192 849.345,394.231 853.985,411.267C860.018,433.416 865.942,455.595 872.036,477.727C877.746,498.46 883.677,519.131 889.399,539.86C895.337,561.37 901.117,582.923 907.014,604.445C912.655,625.035 918.336,645.615 924.045,666.188C926.58,675.324 929.229,684.43 931.9,693.81L550.187,693.81C490.956,479.091 431.72,264.357 372.311,48.998L378.499,48.998C501.817,48.998 625.136,49.01 748.455,48.944C752.304,48.942 754.041,49.394 755.266,54.049C762.33,80.892 770.252,107.508 777.642,134.267C785.248,161.814 792.462,189.469 800.062,217.017C807.444,243.779 815.131,270.456 822.614,297.19C824.865,305.231 826.881,313.338 829.021,321.835M546.088,288.698C533.391,288.779 520.693,288.86 507.088,288.692L480.762,288.692C485.963,306.963 490.951,324.484 495.908,342.809C506.892,382.76 517.875,422.711 528.87,462.702C544.48,462.702 559.744,462.702 575.93,462.875C589.953,462.815 603.977,462.755 618.923,462.872C631.282,462.812 643.641,462.752 656.874,462.872L663.224,462.872C647.296,404.455 631.543,346.677 615.802,288.945C592.512,288.945 569.754,288.945 546.088,288.698M817.877,462.872L824.305,462.872C808.385,404.462 792.622,346.633 776.899,288.946C753.522,288.946 730.759,288.946 707.088,288.698C694.391,288.779 681.693,288.86 668.088,288.692L641.925,288.692C647.184,307.385 652.193,325.19 657.171,343.762C668.142,383.476 679.113,423.189 690.029,462.702C705.777,462.702 720.892,462.702 736.93,462.876C750.953,462.815 764.977,462.755 779.923,462.872C792.282,462.812 804.641,462.752 817.877,462.872M551.42,543.036C562.753,584.026 574.086,625.016 585.435,666.065C601.486,666.065 617.241,666.065 633.907,666.305C647.27,666.223 660.633,666.141 674.908,666.298C687.604,666.217 700.3,666.135 713.881,666.294L719.669,666.294C703.782,607.91 688.045,550.079 672.325,492.307C648.866,492.307 625.932,492.307 602.078,492.122C589.387,492.183 576.697,492.243 563.085,492.118L537.385,492.118C542.146,509.139 546.771,525.676 551.42,543.036M869.891,666.294L880.675,666.294C880.764,665.442 880.899,665.087 880.818,664.79C875.149,644.085 869.485,623.378 863.772,602.686C853.871,566.828 843.964,530.971 833.914,495.155C833.565,493.913 831.657,492.235 830.469,492.23C806.647,492.126 782.823,492.238 758.079,492.121C742.056,492.18 726.032,492.24 709.104,492.112L698.727,492.112C699.171,493.937 699.482,495.368 699.869,496.778C706.622,521.395 713.375,546.013 720.148,570.625C728.548,601.153 736.948,631.681 745.421,662.19C745.931,664.028 745.776,666.438 749.139,666.406C772.757,666.184 796.376,666.155 820.907,666.299C836.937,666.218 852.967,666.136 869.891,666.294M702.93,258.668C720.95,258.576 738.971,258.484 757.874,258.661L769.296,258.661C767.391,252.961 765.443,248.009 764.082,242.899C759.471,225.586 755.247,208.168 750.547,190.879C742.147,159.981 733.513,129.148 724.962,98.291C723.725,93.825 723.718,87.61 720.759,85.412C717.593,83.061 711.607,84.322 706.852,84.328C686.899,84.354 666.945,84.501 646.094,84.328C628.071,84.411 610.048,84.495 591.229,84.308C589.841,84.396 588.453,84.485 586.543,84.606C602.667,143.046 618.618,200.857 634.5,258.42C657.438,258.42 679.733,258.42 702.93,258.668M596.872,258.661L608.331,258.661C607.317,256.468 606.445,255.125 606.055,253.654C601.115,235.045 596.379,216.381 591.325,197.803C582.264,164.493 573.037,131.228 563.837,97.956C562.604,93.497 562.392,87.434 559.396,85.156C556.402,82.881 550.504,84.304 545.88,84.317C525.917,84.37 505.954,84.501 485.093,84.327C466.737,84.411 448.381,84.495 429.24,84.308C424.71,83.751 425.933,86.328 426.636,88.875C437.562,128.492 448.432,168.125 459.35,207.744C464.007,224.647 468.745,241.528 473.446,258.419C495.85,258.419 517.939,258.419 540.93,258.668C559.284,258.576 577.637,258.484 596.872,258.661Z" style="fill-rule:nonzero;"/>
        <path d="M333.003,608.968C324.622,622.568 316.275,635.783 308.002,649.043C299.298,662.991 290.733,677.026 281.901,690.891C280.953,692.379 278.733,693.424 276.905,693.882C274.867,694.394 272.602,694 270.436,694C258.935,694 259.048,693.929 253.162,684.531C236.318,657.637 219.35,630.82 202.477,603.944C191.574,586.577 180.754,569.159 169.888,551.771C169.811,551.648 169.604,551.607 169.11,551.339C162.376,575.233 155.696,599.052 148.946,622.852C143.986,640.341 138.933,657.804 133.923,675.279C132.581,679.958 131.105,684.605 129.954,689.331C129.066,692.979 127.161,694.143 123.343,694.097C105.181,693.88 87.015,694 68.851,694L1.541,694C27.838,602.434 53.978,511.411 80.229,420L85.65,420C124.644,420 163.639,420.057 202.633,419.906C206.234,419.892 207.937,420.961 209.757,424.113C218.954,440.034 228.561,455.718 237.993,471.504C245.008,483.244 252.077,494.953 258.901,506.803C260.95,510.361 263.281,511.658 267.576,512.273C276.41,513.537 279.476,508.153 283.063,502.042C295.092,481.55 307.428,461.237 319.592,440.823C323.258,434.672 326.657,428.361 330.401,422.26C331.075,421.163 332.837,420.097 334.1,420.093C374.427,419.981 414.755,420.015 455.083,419.969C457.765,419.966 458.438,421.028 459.153,423.634C466.797,451.491 474.8,479.249 482.532,507.082C491.134,538.046 499.475,569.083 508.084,600.045C515.779,627.719 523.689,655.334 531.489,682.979C532.454,686.397 533.324,689.841 534.431,694L529.047,694C490.052,694 451.058,693.966 412.063,694.057C408.479,694.066 406.872,693.42 405.796,689.336C398.268,660.775 390.211,632.354 382.431,603.86C377.756,586.743 373.274,569.574 368.508,551.687C356.428,571.088 344.749,589.846 333.003,608.968Z" style="fill-rule:nonzero;"/>
        <path d="M217.02,385.081C214.544,393.94 212.088,402.38 209.637,410.801L81.868,410.801C116.771,290.088 151.595,169.647 186.446,49.114L357.647,49.114C390.44,169.523 423.237,289.945 456.262,411.205L330.21,411.205C323.522,386.579 316.677,361.378 309.785,336C294.918,336 280.269,336.12 265.624,335.957C256.205,335.853 246.772,335.588 237.383,334.894C232.573,334.538 231.062,336.492 229.882,340.815C225.873,355.505 221.36,370.057 217.02,385.081M243.997,290.437C243.613,291.8 243.229,293.164 242.765,294.814L298.658,294.814C289.007,254.362 279.36,213.923 269.555,172.823C265.935,188.965 262.408,204.319 259.065,219.712C256.263,232.615 253.742,245.579 250.972,258.489C248.745,268.869 246.333,279.208 243.997,290.437Z" style="fill-rule:nonzero;"/>
        <path d="M720,749.703L720,794.699L700.258,794.699L700.258,723.005C709.911,723.005 719.361,722.889 728.8,723.162C729.901,723.194 731.481,725.208 731.921,726.594C735.743,738.647 739.351,750.767 743.047,762.86C743.226,763.447 743.633,763.965 744.334,765.247C748.549,750.765 752.558,736.993 756.573,723.196L787.733,723.196L787.733,794.762L768.287,794.762L768.287,750.677C767.958,750.618 767.629,750.559 767.3,750.499C763.227,762.892 758.652,775.151 755.3,787.736C753.701,793.743 751.26,795.923 745.303,795.077C742.208,794.638 738.998,795 735.505,795C730.58,779.828 725.664,764.684 720.748,749.541C720.498,749.595 720.249,749.649 720,749.703Z" style="fill-rule:nonzero;"/>
        <path d="M553.736,743.393C557.342,752.961 560.754,762.178 564.166,771.396C564.411,771.346 564.656,771.296 564.901,771.246L564.901,723.351L584.693,723.351L584.693,794.996C574.534,794.996 564.428,795.13 554.334,794.828C553.063,794.79 551.311,792.681 550.711,791.163C545.7,778.49 540.905,765.732 536.048,752.998C535.253,750.914 534.472,748.826 533.048,746.776L533.048,794.773L513.36,794.773L513.36,723.008C523.51,723.008 533.767,722.917 544.017,723.15C545.028,723.173 546.372,725.025 546.914,726.302C549.255,731.827 551.356,737.454 553.736,743.393Z" style="fill-rule:nonzero;"/>
        <path d="M219.075,795C212.681,795.966 209.27,794.205 207.167,787.854C202.557,773.927 196.893,760.349 191.048,746.742L191.048,794.667L171.292,794.667L171.292,723.004C181.478,723.004 191.581,722.896 201.675,723.154C202.809,723.183 204.385,725.094 204.92,726.459C210.756,741.371 216.426,756.348 222.904,771.232L222.904,723.245L242.62,723.245L242.62,795L219.075,795Z" style="fill-rule:nonzero;"/>
        <path d="M809.031,723C818.52,723 827.52,722.813 836.506,723.085C840.531,723.207 844.63,723.882 848.518,724.953C855.476,726.87 858.844,731.53 858.995,738.509C859.03,740.174 859,741.84 859,743.506C859,752.241 857.923,754.149 850.526,758.524C856.933,759.979 859.969,763.796 859.998,770.45C860.009,772.782 860,775.114 860,777.446C859.999,789.29 855.132,794.663 843.159,794.924C828.687,795.241 814.202,794.999 799.362,794.999L799.362,723L809.031,723M825.531,779C829.264,778.66 833.315,779.078 836.615,777.699C838.648,776.85 840.393,773.337 840.616,770.871C840.749,769.399 837.823,766.432 836.038,766.233C830.524,765.618 824.898,766.008 819.329,766.008L819.329,779C821.297,779 822.936,779 825.531,779M837.443,750.031C840.282,745.449 839.399,740.415 835.459,740.124C830.078,739.727 824.645,740.025 819.365,740.025L819.365,752.565C825.481,751.888 831.159,751.26 837.443,750.031Z" style="fill-rule:nonzero;"/>
        <path d="M931.53,794.542C925.036,794.875 918.884,794.875 912.223,794.875L912.223,767.32L888.039,767.32L888.039,794.772L868.358,794.772L868.358,723.316L887.796,723.316L887.796,749.598L911.801,749.598L911.801,723.308L931.871,723.308C931.871,747.004 931.871,770.606 931.53,794.542Z" style="fill-rule:nonzero;"/>
        <path d="M320.044,734.061C321.202,730.137 322.319,726.625 323.439,723.102L352.719,723.102C359.875,746.802 367.069,770.624 374.428,794.996C367.94,794.996 362.126,795.12 356.327,794.884C355.253,794.841 353.723,793.553 353.295,792.483C352.107,789.512 351.389,786.352 350.408,783.001C343.289,783.001 336.137,782.86 329.001,783.126C327.663,783.176 325.737,784.582 325.213,785.835C324.039,788.639 323.578,791.742 322.808,794.795L301.712,794.795C307.876,774.465 313.939,754.469 320.044,734.061M342.009,753.412C340.917,749.402 339.824,745.392 338.34,739.945C335.546,749.991 333.12,758.714 330.65,767.594L346.33,767.594C344.805,762.809 343.439,758.523 342.009,753.412Z" style="fill-rule:nonzero;"/>
        <path d="M469.227,752L498.679,752L498.679,765.961L469.228,765.961L469.228,778.791L501.685,778.791L501.685,794.732L449.226,794.732L449.226,723.362L501.68,723.362L501.68,739.96L469.227,739.96L469.227,752Z" style="fill-rule:nonzero;"/>
        <path d="M285,740.735L285,794.7L266.181,794.7L266.181,741.27L247.343,741.27L247.343,723.297L303.744,723.297L303.744,740.735L285,740.735Z" style="fill-rule:nonzero;"/>
    </g>
</svg>
