<?xml version="1.0" encoding="UTF-8" standalone="no"?>
<!DOCTYPE svg PUBLIC "-//W3C//DTD SVG 1.1//EN" "http://www.w3.org/Graphics/SVG/1.1/DTD/svg11.dtd">
<svg width="100%" height="100%" viewBox="0 0 343 343" version="1.1" xmlns="http://www.w3.org/2000/svg" xmlns:xlink="http://www.w3.org/1999/xlink" xml:space="preserve" xmlns:serif="http://www.serif.com/" style="fill-rule:evenodd;clip-rule:evenodd;stroke-linejoin:round;stroke-miterlimit:2;">
    <g transform="matrix(1,0,0,1,-11.8733,-10.0109)">
        <g transform="matrix(51.4518,0,0,51.4518,-42.5626,-29.0924)">
            <g>
                <path d="M2.894,0.76C2.374,1.374 2.087,2.152 2.084,2.956C2.084,4.834 3.629,6.38 5.507,6.382C6.315,6.378 7.095,6.087 7.709,5.562C7.084,6.672 5.939,7.407 4.633,7.408C4.633,7.408 4.632,7.408 4.632,7.408C2.671,7.408 1.058,5.795 1.058,3.834C1.058,3.833 1.058,3.832 1.058,3.831C1.06,2.53 1.79,1.385 2.894,0.76Z" style="fill:currentColor"/>
                <path d="M3.803,2.123C3.837,2.143 3.889,2.17 3.973,2.238C4.075,2.32 4.149,2.425 4.157,2.482L3.45,2.482C3.459,2.425 3.533,2.32 3.635,2.238C3.719,2.171 3.771,2.143 3.805,2.123L3.803,2.123ZM6.052,2.123C6.086,2.143 6.138,2.17 6.222,2.238C6.324,2.32 6.398,2.425 6.406,2.482L5.698,2.482C5.707,2.425 5.781,2.32 5.883,2.238C5.967,2.171 6.019,2.143 6.053,2.123L6.052,2.123ZM3.572,2.68L4.035,2.68L4.035,3.274C3.911,3.449 3.87,3.67 3.923,3.878C3.932,3.924 3.973,3.958 4.02,3.958L4.035,3.958L4.035,4.763L3.572,4.763L3.572,4.428L3.592,4.428C3.638,4.428 3.679,4.395 3.689,4.35C3.729,4.178 3.686,3.997 3.572,3.863L3.572,2.68ZM5.82,2.68L6.284,2.68L6.284,3.863C6.17,3.997 6.126,4.178 6.167,4.35C6.177,4.395 6.218,4.428 6.264,4.428L6.284,4.428L6.284,4.762L5.82,4.762L5.82,3.957L5.834,3.957C5.881,3.957 5.922,3.923 5.931,3.877C5.984,3.669 5.943,3.448 5.819,3.273L5.82,2.68ZM4.928,2.735C4.97,2.761 5.128,2.853 5.326,3.025C5.549,3.219 5.755,3.475 5.755,3.671C5.755,3.701 5.749,3.73 5.745,3.759L4.11,3.759C4.107,3.729 4.101,3.701 4.101,3.671C4.101,3.475 4.306,3.219 4.53,3.025C4.728,2.853 4.885,2.761 4.928,2.735ZM2.943,3.591C2.981,3.614 3.077,3.668 3.211,3.78C3.368,3.911 3.506,4.086 3.506,4.2L3.503,4.23L2.543,4.23C2.513,4.159 2.486,4.086 2.462,4.013C2.537,3.904 2.66,3.791 2.771,3.707C2.865,3.636 2.911,3.61 2.943,3.591ZM6.912,3.592C6.951,3.615 7.046,3.668 7.179,3.78C7.337,3.911 7.474,4.086 7.474,4.2L7.471,4.23L6.353,4.23L6.35,4.2C6.35,4.086 6.488,3.911 6.645,3.78C6.778,3.668 6.874,3.615 6.912,3.592ZM4.233,3.957L5.623,3.957L5.623,4.763L4.233,4.763L4.233,3.957Z" style="fill:currentColor"/>
                <path d="M2.639,4.428L3.373,4.428L3.373,4.862C3.374,4.916 3.419,4.961 3.473,4.961L6.383,4.961C6.438,4.961 6.483,4.916 6.483,4.861L6.483,4.428L7.343,4.428L7.343,5.6C6.805,5.977 6.164,6.181 5.507,6.184C4.299,6.184 3.188,5.504 2.639,4.428Z" style="fill:currentColor"/>
                <rect x="4.796" y="2.216" width="0.264" height="0.397" style="fill:white;"/>
                <path d="M4.708,1.422C4.674,1.423 4.641,1.437 4.617,1.462C4.52,1.559 4.465,1.691 4.465,1.829C4.465,2.114 4.699,2.348 4.984,2.348C5.122,2.348 5.254,2.293 5.351,2.196C5.376,2.171 5.39,2.138 5.39,2.102C5.39,2.03 5.33,1.97 5.258,1.97C5.222,1.97 5.189,1.984 5.164,2.009C5.116,2.057 5.051,2.083 4.984,2.083C4.983,2.083 4.982,2.083 4.981,2.083C4.843,2.083 4.729,1.969 4.729,1.831C4.729,1.83 4.729,1.83 4.729,1.829C4.729,1.758 4.758,1.695 4.804,1.649C4.83,1.624 4.844,1.59 4.844,1.554C4.844,1.482 4.785,1.422 4.712,1.422C4.711,1.422 4.709,1.422 4.708,1.422Z" style="fill:currentColor"/>
                <path d="M6.91,3.44L6.78,3.574L6.78,3.702C6.777,3.882 7.047,3.882 7.045,3.702L7.045,3.574L6.91,3.44ZM6.05,1.72L5.92,1.854L5.92,2.247C5.917,2.427 6.187,2.427 6.185,2.247L6.185,1.854L6.05,1.72ZM2.941,3.44L2.811,3.574L2.811,3.702C2.809,3.882 3.078,3.882 3.076,3.702L3.076,3.574L2.941,3.44ZM3.801,1.72L3.671,1.854L3.671,2.247C3.668,2.427 3.938,2.427 3.936,2.247L3.936,1.854L3.801,1.72Z" style="fill:currentColor"/>
            </g>
        </g>
    </g>
</svg>
