<?xml version="1.0" encoding="UTF-8" standalone="no"?>
<!DOCTYPE svg PUBLIC "-//W3C//DTD SVG 1.1//EN" "http://www.w3.org/Graphics/SVG/1.1/DTD/svg11.dtd">
<svg width="100%" height="100%" viewBox="0 0 321 134" version="1.1" xmlns="http://www.w3.org/2000/svg" xmlns:xlink="http://www.w3.org/1999/xlink" xml:space="preserve" xmlns:serif="http://www.serif.com/" style="fill-rule:evenodd;clip-rule:evenodd;stroke-linejoin:round;stroke-miterlimit:2;">
    <g transform="matrix(1,0,0,1,0,0.06)">
        <g id="Ebene_2">
            <g id="viereck">
                <path d="M286.11,31.22L286.11,133.14L184.19,133.14L184.19,31.22L286.11,31.22ZM265.38,101.7L225.1,101.7L225.1,117.5L265.49,117.5L266.5,115.94L266.5,103.27L265.38,101.7ZM219.31,117.5L219.31,45.77L217.74,44.76L202.72,44.76L201.26,45.77L201.26,115.82L202.72,117.5L219.31,117.5Z"/>
            </g>
            <g id="text">
                <path d="M0,0.45L13,0.45L13,3.3L3.3,3.3L3.3,8.24L11.83,8.24L11.83,10.94L3.3,10.94L3.3,19.31L0,19.31L0,0.45Z" style="fill-rule:nonzero;"/>
                <path d="M37,0.45L40.51,0.45L47.78,19.31L44.21,19.31L42.44,14.31L34.91,14.31L33.14,19.31L29.73,19.31L37,0.45ZM35.81,11.81L41.57,11.81L38.74,3.7L38.66,3.7L35.81,11.81Z" style="fill-rule:nonzero;"/>
                <path d="M65.73,0.45L69,0.45L69,8L77.58,8L77.58,0.45L80.89,0.45L80.89,19.31L77.61,19.31L77.61,10.8L69,10.8L69,19.31L65.7,19.31L65.73,0.45Z" style="fill-rule:nonzero;"/>
                <path d="M101.14,0.45L110.14,0.45C114.28,0.45 116.37,2.35 116.37,5.55C116.37,9.17 113.89,10.09 113.25,10.3C114.39,10.44 116.05,11.3 116.05,14.3C116.05,16.52 116.37,18.5 117.05,19.3L113.51,19.3C113.094,18.436 112.922,17.475 113.01,16.52C113.01,13.06 112.3,11.52 109.26,11.52L104.4,11.52L104.4,19.29L101.1,19.29L101.14,0.45ZM104.44,9L109.86,9C111.97,9 113.08,8 113.08,6C113.08,3.57 111.52,3.12 109.8,3.12L104.44,3.12L104.44,9Z" style="fill-rule:nonzero;"/>
                <path d="M138.16,13C138.16,15.88 140.3,17 142.94,17C145.85,17 146.94,15.55 146.94,14.15C147.029,13.11 146.377,12.14 145.38,11.83C144.04,11.32 142.38,10.98 139.76,10.27C136.51,9.42 135.59,7.44 135.59,5.49C135.59,1.68 139.07,-0.06 142.48,-0.06C146.39,-0.06 149.72,2.03 149.72,5.94L146.4,5.94C146.22,3.51 144.64,2.61 142.34,2.61C140.81,2.61 138.88,3.17 138.88,5.07C138.88,6.42 139.78,7.07 141.12,7.5C141.41,7.58 145.59,8.66 146.56,8.95C148.718,9.546 150.226,11.521 150.23,13.76C150.23,17.99 146.46,19.68 142.73,19.68C138.43,19.68 134.94,17.62 134.86,12.94L138.16,13Z" style="fill-rule:nonzero;"/>
                <path d="M182.11,6.44C181.737,4.182 179.694,2.552 177.41,2.69C173.41,2.69 171.68,6.26 171.68,9.88C171.68,13.5 173.37,17.06 177.41,17.06C180.41,17.06 181.92,14.87 182.21,12.12L185.44,12.12C185.382,16.331 181.902,19.764 177.691,19.764C177.607,19.764 177.524,19.763 177.44,19.76C171.81,19.76 168.44,15.29 168.44,9.88C168.44,4.47 171.85,0 177.44,0C181.72,0 185.02,2.38 185.44,6.44L182.11,6.44Z" style="fill-rule:nonzero;"/>
                <path d="M204.63,0.45L207.93,0.45L207.93,8L216.52,8L216.52,0.45L219.82,0.45L219.82,19.31L216.52,19.31L216.52,10.8L207.93,10.8L207.93,19.31L204.63,19.31L204.63,0.45Z" style="fill-rule:nonzero;"/>
                <path d="M239.83,0.45L243.13,0.45L243.13,11.45C243.13,13.98 243.29,16.91 247.57,16.91C251.85,16.91 252,14 252,11.44L252,0.45L255.3,0.45L255.3,12.52C255.3,17.35 252.21,19.76 247.56,19.76C242.91,19.76 239.82,17.35 239.82,12.52L239.83,0.45Z" style="fill-rule:nonzero;"/>
                <path d="M275.38,0.45L278.68,0.45L278.68,16.45L288.27,16.45L288.27,19.3L275.38,19.3L275.38,0.45Z" style="fill-rule:nonzero;"/>
                <path d="M306.8,0.45L320.38,0.45L320.38,3.3L310.1,3.3L310.1,8.24L319.61,8.24L319.61,10.94L310.1,10.94L310.1,16.46L320.56,16.46L320.56,19.31L306.8,19.31L306.8,0.45Z" style="fill-rule:nonzero;"/>
                <path d="M302.73,116.86L302.73,46.86L304.19,45.86L319.19,45.86L320.75,46.86L320.75,117L319.75,118.56L304.19,118.56L302.73,116.86Z" style="fill-rule:nonzero;"/>
                <path d="M70.26,45.8L23.93,45.8L23.93,61.49L70.15,61.49L71.27,59.92L71.27,47.26L70.26,45.8Z" style="fill-rule:nonzero;"/>
                <path d="M2.67,86.32C3.369,87.355 4.242,88.262 5.25,89C6.108,89.67 7.161,90.043 8.25,90.06L18.13,90.06L18.13,45.8L8.27,45.8C7.181,45.817 6.128,46.19 5.27,46.86C4.262,47.589 3.384,48.481 2.67,49.5C1.91,50.556 1.288,51.706 0.82,52.92C0.37,53.964 0.123,55.084 0.09,56.22L0.09,79.65C0.12,80.77 0.368,81.874 0.82,82.9C1.305,84.106 1.926,85.254 2.67,86.32Z" style="fill-rule:nonzero;"/>
                <path d="M125.53,102.74L105,102.74L105,46.81L103.43,45.81L88.43,45.81L86.98,46.81L86.98,108.12C87.001,109.277 87.249,110.419 87.71,111.48C88.189,112.674 88.81,113.805 89.56,114.85C90.27,115.859 91.138,116.747 92.13,117.48C92.99,118.147 94.042,118.518 95.13,118.54L125.52,118.54L125.53,102.74Z" style="fill-rule:nonzero;"/>
                <path d="M166.32,45.8L151.41,45.8L149.84,46.8L149.84,102.73L131.31,102.73L131.31,118.53L159.7,118.53C160.787,118.503 161.837,118.132 162.7,117.47C163.721,116.747 164.613,115.858 165.34,114.84C166.082,113.79 166.703,112.66 167.19,111.47C167.647,110.407 167.895,109.266 167.92,108.11L167.92,46.81L166.32,45.8Z" style="fill-rule:nonzero;"/>
                <path d="M47.49,102.74L1.1,102.74L0.09,104.31L0.09,116.98L0.99,118.55L47.49,118.55L47.49,102.74Z" style="fill-rule:nonzero;"/>
                <path d="M70.54,81.39C70.059,80.179 69.416,79.039 68.63,78C67.891,76.984 67.004,76.085 66,75.33C65.166,74.671 64.142,74.299 63.08,74.27L23.93,74.27L23.93,90.07L53.22,90.07L53.22,95.49L53.27,95.49L53.27,118.54L63.08,118.54C64.142,118.511 65.166,118.139 66,117.48C67.002,116.738 67.888,115.852 68.63,114.85C69.41,113.814 70.052,112.681 70.54,111.48C70.997,110.417 71.245,109.276 71.27,108.12L71.27,84.69C71.231,83.555 70.984,82.436 70.54,81.39Z" style="fill-rule:nonzero;"/>
            </g>
        </g>
    </g>
</svg>
