<?xml version="1.0" encoding="UTF-8" standalone="no"?>
<!DOCTYPE svg PUBLIC "-//W3C//DTD SVG 1.1//EN" "http://www.w3.org/Graphics/SVG/1.1/DTD/svg11.dtd">
<svg width="100%" height="100%" viewBox="0 0 667 286" version="1.1" xmlns="http://www.w3.org/2000/svg" xmlns:xlink="http://www.w3.org/1999/xlink" xml:space="preserve" xmlns:serif="http://www.serif.com/" >
    <g transform="matrix(1,0,0,1,-206.5,-1558.98)">
        <g transform="matrix(7.86628,0,0,7.5708,-10402.4,220.86)">
            <g transform="matrix(0.42792,0,0,0.444621,1188.46,-6.53756)">
                <path d="M385.97,452.027C383.603,452.027 381.553,451.585 379.82,450.702C378.087,449.818 376.745,448.568 375.795,446.952C374.845,445.335 374.37,443.427 374.37,441.227L374.37,425.327C374.37,423.127 374.845,421.218 375.795,419.602C376.745,417.985 378.087,416.735 379.82,415.852C381.553,414.968 383.603,414.527 385.97,414.527C388.303,414.527 390.337,414.968 392.07,415.852C393.803,416.735 395.153,417.985 396.12,419.602C397.087,421.218 397.57,423.127 397.57,425.327L391.27,425.327C391.27,423.627 390.812,422.318 389.895,421.402C388.978,420.485 387.67,420.027 385.97,420.027C384.27,420.027 382.953,420.477 382.02,421.377C381.087,422.277 380.62,423.577 380.62,425.277L380.62,441.227C380.62,442.927 381.087,444.243 382.02,445.177C382.953,446.11 384.27,446.577 385.97,446.577C387.67,446.577 388.978,446.11 389.895,445.177C390.812,444.243 391.27,442.927 391.27,441.227L391.27,437.177L385.07,437.177L385.07,431.777L397.57,431.777L397.57,441.227C397.57,443.427 397.087,445.335 396.12,446.952C395.153,448.568 393.803,449.818 392.07,450.702C390.337,451.585 388.303,452.027 385.97,452.027Z" />
            </g>
            <g transform="matrix(0.42792,0,0,0.444621,1188.46,-6.53756)">
                <path d="M410.82,452.027C408.487,452.027 406.453,451.577 404.72,450.677C402.987,449.777 401.645,448.502 400.695,446.852C399.745,445.202 399.27,443.26 399.27,441.027L399.27,434.527C399.27,432.293 399.745,430.352 400.695,428.702C401.645,427.052 402.987,425.777 404.72,424.877C406.453,423.977 408.487,423.527 410.82,423.527C413.12,423.527 415.128,423.977 416.845,424.877C418.562,425.777 419.895,427.035 420.845,428.652C421.795,430.268 422.27,432.16 422.27,434.327L422.27,439.327L405.27,439.327L405.27,441.227C405.27,443.093 405.753,444.502 406.72,445.452C407.687,446.402 409.053,446.877 410.82,446.877C412.12,446.877 413.228,446.652 414.145,446.202C415.062,445.752 415.603,445.093 415.77,444.227L421.97,444.227C421.537,446.593 420.303,448.485 418.27,449.902C416.237,451.318 413.753,452.027 410.82,452.027ZM405.27,434.327L405.27,435.277L416.27,435.227L416.27,434.277C416.27,432.377 415.803,430.91 414.87,429.877C413.937,428.843 412.587,428.327 410.82,428.327C408.987,428.327 407.603,428.852 406.67,429.902C405.737,430.952 405.27,432.427 405.27,434.327Z" />
            </g>
            <g transform="matrix(0.42792,0,0,0.444621,1188.46,-6.53756)">
                <path d="M424.625,451.527L424.62,451.527L424.62,447.866L424.625,451.527ZM440.771,451.527L440.77,451.527L440.77,450.731L440.771,451.527Z"/>
            </g>
            <g transform="matrix(0.42792,0,0,0.444621,1188.46,-6.53756)">
                <path d="M499.57,451.527L499.57,445.877L508.97,445.877L508.97,429.677L500.57,429.677L500.57,424.027L515.22,424.027L515.22,445.877L523.67,445.877L523.67,451.527L499.57,451.527ZM511.67,419.427C510.403,419.427 509.403,419.102 508.67,418.452C507.937,417.802 507.57,416.927 507.57,415.827C507.57,414.727 507.937,413.852 508.67,413.202C509.403,412.552 510.403,412.227 511.67,412.227C512.937,412.227 513.937,412.552 514.67,413.202C515.403,413.852 515.77,414.727 515.77,415.827C515.77,416.927 515.403,417.802 514.67,418.452C513.937,419.102 512.937,419.427 511.67,419.427Z"/>
            </g>
            <g transform="matrix(0.42792,0,0,0.444621,1188.46,-6.53756)">
                <path d="M536.22,452.027C533.853,452.027 531.795,451.585 530.045,450.702C528.295,449.818 526.937,448.568 525.97,446.952C525.003,445.335 524.52,443.427 524.52,441.227L524.52,434.327C524.52,432.127 525.003,430.218 525.97,428.602C526.937,426.985 528.295,425.735 530.045,424.852C531.795,423.968 533.853,423.527 536.22,423.527C539.653,423.527 542.412,424.418 544.495,426.202C546.578,427.985 547.67,430.41 547.77,433.477L541.62,433.477C541.52,432.043 540.978,430.935 539.995,430.152C539.012,429.368 537.753,428.977 536.22,428.977C534.52,428.977 533.187,429.435 532.22,430.352C531.253,431.268 530.77,432.577 530.77,434.277L530.77,441.227C530.77,442.927 531.253,444.243 532.22,445.177C533.187,446.11 534.52,446.577 536.22,446.577C537.787,446.577 539.053,446.185 540.02,445.402C540.987,444.618 541.52,443.51 541.62,442.077L547.77,442.077C547.67,445.143 546.578,447.568 544.495,449.352C542.412,451.135 539.653,452.027 536.22,452.027Z" />
            </g>
            <g transform="matrix(0.42792,0,0,0.444621,1188.46,-6.53756)">
                <path d="M559.62,451.977C556.353,451.977 553.77,451.235 551.87,449.752C549.97,448.268 549.02,446.26 549.02,443.727L555.17,443.727C555.17,444.793 555.562,445.61 556.345,446.177C557.128,446.743 558.22,447.027 559.62,447.027L561.82,447.027C563.32,447.027 564.478,446.743 565.295,446.177C566.112,445.61 566.52,444.793 566.52,443.727C566.52,442.727 566.237,441.985 565.67,441.502C565.103,441.018 564.237,440.693 563.07,440.527L556.22,439.627C554.02,439.327 552.328,438.477 551.145,437.077C549.962,435.677 549.37,433.86 549.37,431.627C549.37,429.027 550.237,427.035 551.97,425.652C553.703,424.268 556.203,423.577 559.47,423.577L561.77,423.577C564.837,423.577 567.303,424.277 569.17,425.677C571.037,427.077 572.003,428.943 572.07,431.277L565.87,431.277C565.837,430.41 565.453,429.718 564.72,429.202C563.987,428.685 563.003,428.427 561.77,428.427L559.47,428.427C558.137,428.427 557.12,428.702 556.42,429.252C555.72,429.802 555.37,430.543 555.37,431.477C555.37,432.31 555.628,432.927 556.145,433.327C556.662,433.727 557.42,433.977 558.42,434.077L564.87,434.977C567.403,435.277 569.312,436.168 570.595,437.652C571.878,439.135 572.52,441.127 572.52,443.627C572.52,446.293 571.612,448.352 569.795,449.802C567.978,451.252 565.32,451.977 561.82,451.977L559.62,451.977Z" />
            </g>
            <g transform="matrix(0.42792,0,0,0.444621,1178.08,-8.80513)">
                <path d="M410.92,502.027C408.453,502.027 406.295,501.593 404.445,500.727C402.595,499.86 401.162,498.618 400.145,497.002C399.128,495.385 398.62,493.46 398.62,491.227L404.77,491.227C404.77,492.86 405.328,494.16 406.445,495.127C407.562,496.093 409.053,496.577 410.92,496.577C412.72,496.577 414.145,496.102 415.195,495.152C416.245,494.202 416.77,492.927 416.77,491.327C416.77,490.127 416.428,489.068 415.745,488.152C415.062,487.235 414.087,486.61 412.82,486.277L407.92,485.027C405.287,484.36 403.203,483.11 401.67,481.277C400.137,479.443 399.37,477.26 399.37,474.727C399.37,471.627 400.387,469.152 402.42,467.302C404.453,465.452 407.17,464.527 410.57,464.527C412.87,464.527 414.878,464.943 416.595,465.777C418.312,466.61 419.637,467.785 420.57,469.302C421.503,470.818 421.97,472.593 421.97,474.627L415.87,474.627C415.87,473.227 415.387,472.093 414.42,471.227C413.453,470.36 412.17,469.927 410.57,469.927C409.003,469.927 407.762,470.352 406.845,471.202C405.928,472.052 405.47,473.16 405.47,474.527C405.47,475.66 405.795,476.593 406.445,477.327C407.095,478.06 408.003,478.593 409.17,478.927L414.22,480.177C416.92,480.843 419.045,482.177 420.595,484.177C422.145,486.177 422.92,488.56 422.92,491.327C422.92,493.493 422.428,495.377 421.445,496.977C420.462,498.577 419.07,499.818 417.27,500.702C415.47,501.585 413.353,502.027 410.92,502.027Z" />
            </g>
            <g transform="matrix(0.42792,0,0,0.444621,1178.08,-8.80513)">
                <path d="M438.52,501.527C435.953,501.527 433.912,500.785 432.395,499.302C430.878,497.818 430.12,495.81 430.12,493.277L430.12,479.677L422.52,479.677L422.52,474.027L430.12,474.027L430.12,466.277L436.42,466.277L436.42,474.027L447.37,474.027L447.37,479.677L436.42,479.677L436.42,493.127C436.42,493.927 436.645,494.585 437.095,495.102C437.545,495.618 438.17,495.877 438.97,495.877L447.12,495.877L447.12,501.527L438.52,501.527Z" />
            </g>
            <g transform="matrix(0.42792,0,0,0.444621,1178.08,-8.80513)">
                <path d="M535.77,501.977C532.237,501.977 529.437,500.985 527.37,499.002C525.303,497.018 524.27,494.343 524.27,490.977L524.27,484.577C524.27,481.177 525.303,478.493 527.37,476.527C529.437,474.56 532.237,473.577 535.77,473.577C539.303,473.577 542.103,474.56 544.17,476.527C546.237,478.493 547.27,481.177 547.27,484.577L547.27,490.977C547.27,494.343 546.237,497.018 544.17,499.002C542.103,500.985 539.303,501.977 535.77,501.977ZM535.77,496.527C537.437,496.527 538.728,496.068 539.645,495.152C540.562,494.235 541.02,492.91 541.02,491.177L541.02,484.377C541.02,482.643 540.562,481.318 539.645,480.402C538.728,479.485 537.437,479.027 535.77,479.027C534.103,479.027 532.812,479.485 531.895,480.402C530.978,481.318 530.52,482.643 530.52,484.377L530.52,491.177C530.52,492.91 530.978,494.235 531.895,495.152C532.812,496.068 534.103,496.527 535.77,496.527Z" />
            </g>
            <g transform="matrix(0.127125,0,0,0.132086,1322.41,-29.1726)">
                <path d="M375.648,1678.94L375.648,1598.7L396.182,1598.7L396.182,1616.03C397.304,1610.2 400.053,1605.57 404.429,1602.15C408.805,1598.73 414.359,1597.01 421.091,1597.01C430.18,1597.01 437.445,1600.04 442.887,1606.1C448.329,1612.16 451.05,1620.3 451.05,1630.51L451.05,1688.59L451.218,1805.72C451.218,1817.05 447.796,1826 440.951,1832.56C434.107,1839.12 424.906,1842.4 413.349,1842.4C401.568,1842.4 392.652,1839.12 385.919,1832.56C379.187,1826 375.821,1817.05 375.821,1805.72L375.648,1678.94ZM430.011,1688.59L430.011,1633.03C430.011,1627.31 428.525,1622.9 425.551,1619.82C422.578,1616.73 418.567,1615.19 413.517,1615.19C408.244,1615.19 404.12,1616.76 401.147,1619.9C398.173,1623.05 396.687,1627.53 396.687,1633.37L396.687,1691.27L396.674,1691.27L396.859,1805.55C396.859,1811.38 398.318,1815.92 401.235,1819.18C404.153,1822.43 407.963,1824.06 413.349,1824.06C418.623,1824.06 422.746,1822.43 425.72,1819.18C428.693,1815.92 430.18,1811.38 430.18,1805.55L430.011,1688.59Z" />
            </g>
            <g transform="matrix(0.127125,0,0,0.132086,1322.41,-29.1726)">
                <path d="M515.4,1689.7C510.122,1691.87 504.156,1692.95 497.503,1692.95C489.648,1692.95 482.804,1691.43 476.969,1688.4C471.134,1685.38 466.618,1681.08 463.42,1675.53C460.223,1669.98 458.624,1663.44 458.624,1655.92L458.624,1634.04C458.624,1626.52 460.223,1619.99 463.42,1614.43C466.618,1608.88 471.134,1604.59 476.969,1601.56C482.804,1598.53 489.648,1597.01 497.503,1597.01C505.245,1597.01 512.005,1598.53 517.783,1601.56C523.562,1604.59 528.05,1608.82 531.248,1614.27C534.446,1619.71 536.045,1626.08 536.045,1633.37L536.045,1650.2L478.82,1650.2L478.82,1656.6C478.82,1662.88 480.447,1667.62 483.701,1670.82C486.955,1674.01 491.556,1675.61 497.503,1675.61C501.879,1675.61 505.609,1674.86 508.695,1673.34C511.781,1671.83 513.604,1669.61 514.165,1666.69L535.035,1666.69C535.035,1666.69 535.035,1666.69 535.034,1666.7L536.045,1666.7L537.391,1842.4L516.858,1842.4L516.858,1825.58C515.175,1831.41 512.145,1835.95 507.769,1839.21C503.393,1842.46 497.951,1844.09 491.443,1844.09C482.467,1844.09 475.202,1840.89 469.648,1834.5C464.094,1828.1 461.317,1819.52 461.317,1808.74L461.317,1783.67C461.317,1772.78 464.066,1764.14 469.564,1757.75C475.062,1751.35 482.355,1748.15 491.443,1748.15C497.839,1748.15 503.253,1749.78 507.685,1753.03C512.117,1756.29 515.231,1760.83 517.026,1766.67L516.353,1745.46L515.4,1689.7ZM478.82,1633.37L478.82,1636.57L515.848,1636.4L515.848,1633.2C515.848,1626.8 514.277,1621.87 511.135,1618.39C507.994,1614.91 503.449,1613.17 497.503,1613.17C491.331,1613.17 486.675,1614.94 483.533,1618.47C480.391,1622.01 478.82,1626.97 478.82,1633.37ZM499.354,1825.91C504.74,1825.91 508.919,1824.28 511.893,1821.03C514.866,1817.78 516.353,1813.18 516.353,1807.23L516.353,1785.01C516.353,1779.07 514.866,1774.47 511.893,1771.21C508.919,1767.96 504.74,1766.33 499.354,1766.33C493.968,1766.33 489.788,1767.79 486.815,1770.71C483.842,1773.62 482.355,1778.11 482.355,1784.17L482.355,1808.07C482.355,1814.13 483.842,1818.62 486.815,1821.54C489.788,1824.45 493.968,1825.91 499.354,1825.91Z" />
            </g>
            <g transform="matrix(0.127125,0,0,0.132086,1322.41,-29.1726)">
                <path d="M568.36,1672.25L598.984,1672.25L598.992,1823.39L627.435,1823.39L627.435,1842.4L546.312,1842.4L546.312,1823.39L577.953,1823.39L577.946,1691.27L547.321,1691.27L547.321,1598.7L567.855,1598.7L567.855,1616.71C568.977,1610.65 571.754,1605.85 576.186,1602.32C580.618,1598.78 586.369,1597.01 593.437,1597.01C602.863,1597.01 610.212,1600.04 615.486,1606.1C620.759,1612.16 623.396,1620.63 623.396,1631.52L623.396,1640.27L602.358,1640.27L602.358,1632.53C602.358,1626.92 600.899,1622.62 597.982,1619.65C595.064,1616.68 590.913,1615.19 585.527,1615.19C579.917,1615.19 575.653,1616.87 572.736,1620.24C569.818,1623.61 568.36,1628.38 568.36,1634.55L568.36,1672.25Z"/>
            </g>
        </g>
    </g>
</svg>
