<?xml version="1.0" encoding="UTF-8" standalone="no"?>
<!DOCTYPE svg PUBLIC "-//W3C//DTD SVG 1.1//EN" "http://www.w3.org/Graphics/SVG/1.1/DTD/svg11.dtd">
<svg width="100%" height="100%" viewBox="0 0 592 708" version="1.1" xmlns="http://www.w3.org/2000/svg" xmlns:xlink="http://www.w3.org/1999/xlink" xml:space="preserve" xmlns:serif="http://www.serif.com/" style="fill-rule:evenodd;clip-rule:evenodd;stroke-linejoin:round;stroke-miterlimit:2;">
    <g transform="matrix(1,0,0,1,-62.5267,-41.3078)">
        <g transform="matrix(0.895291,0,0,0.895291,40.0028,40.4125)">
            <path d="M309.556,554.302C249.214,557.31 194.113,516.21 181.975,459.509C168.286,395.566 206.234,333.07 269.625,316.111C309.478,305.449 346.421,312.342 379.788,336.929C387.496,342.608 389.072,351.394 383.916,358.276C379.062,364.755 370.086,365.533 362.55,360.126C325.652,333.653 278.237,333.298 244.723,360.32C214.176,384.95 200.807,417.11 211.325,455.596C221.75,493.742 248.104,516.678 287.226,524.017C294.19,525.324 301.481,525.479 308.591,525.246C315.514,525.02 322.398,523.613 329.506,522.697L329.506,552.203C323.082,552.886 316.549,553.581 309.556,554.302Z" style="fill:var(--current)"/>
        </g>
        <g transform="matrix(0.895291,0,0,0.895291,40.0028,40.4125)">
            <path d="M424,424.8C442.831,424.8 461.163,424.777 479.494,424.811C488.822,424.828 495.114,430.443 495.078,438.596C495.043,446.792 488.745,452.621 479.571,452.638C448.908,452.696 418.245,452.657 387.582,452.665C381.122,452.667 379.967,453.809 379.965,460.169C379.958,480.5 379.957,500.831 379.966,521.162C379.968,527.312 381.367,528.687 387.637,528.689C413.967,528.698 440.298,528.634 466.628,528.721C477.498,528.757 484.355,537.983 480.798,547.463C478.607,553.304 473.6,556.486 466.149,556.516C451.317,556.575 436.485,556.534 421.654,556.534C410.655,556.534 399.656,556.533 388.657,556.535C380.853,556.536 379.963,557.402 379.963,564.994C379.961,591.991 380.014,618.988 379.935,645.985C379.904,656.46 370.801,663.214 361.336,660.013C355.524,658.049 352.06,653.007 352.04,646.107C351.989,628.276 352.022,610.444 352.022,592.613C352.022,542.285 352.02,491.957 352.024,441.63C352.025,429.593 356.854,424.808 369.006,424.802C387.171,424.794 405.336,424.8 424,424.8Z" style="fill:var(--current)"/>
        </g>
        <g transform="matrix(0.895291,0,0,0.895291,40.0028,40.4125)">
            <path d="M298.37,451.944C290.642,448.7 286.872,443.593 287.197,437.289C287.498,431.454 291.217,426.536 296.921,424.645C298.315,424.183 299.841,423.917 301.309,423.908C311.458,423.845 321.609,423.875 331.298,423.875C330.576,433.253 329.871,442.414 329.132,452.007C319.287,452.007 309.029,452.007 298.37,451.944Z" style="fill:var(--current)"/>
        </g>
        <g transform="matrix(0.895291,0,0,0.895291,40.0028,40.4125)">
            <path d="M622.792,263.21C654.397,310.261 674.911,361.42 682.585,417.191C694.993,507.377 676.964,590.672 623.418,665.295C615.23,676.707 604.095,677.308 594.508,666.957C590.13,662.23 585.267,657.828 584.735,650.627C584.295,644.671 586.777,640.084 590.084,635.507C612.703,604.194 628.89,569.793 636.613,531.954C649.144,470.554 644.043,410.665 617.529,353.379C608.041,332.879 597.32,312.95 586.698,291.838C578.428,299.052 571.158,305.284 564.01,311.653C543.983,329.496 523.42,346.794 504.222,365.491C491.955,377.439 465.473,365.595 463.259,351.809C462.176,345.07 464.064,339.344 469.069,334.608C496.299,308.84 523.528,283.07 550.699,257.24C558.79,249.548 566.687,241.653 574.688,233.866C583.444,225.344 593.73,225.498 601.541,235.002C608.933,243.997 615.599,253.587 622.792,263.21Z" style="fill:var(--current);"/>
        </g>
        <g transform="matrix(0.895291,0,0,0.895291,40.0028,40.4125)">
            <path d="M293.965,68.949C290.687,68.863 287.154,68.235 283.885,67.79C287.426,68.11 290.687,68.863 293.965,68.949Z" style="fill:var(--current);"/>
        </g>
        <g transform="matrix(0.895291,0,0,0.895291,40.0028,40.4125)">
            <path d="M293.965,68.949C290.687,68.863 287.154,68.235 283.885,67.79C287.426,68.11 290.687,68.863 293.965,68.949Z" style="fill:var(--current);"/>
        </g>
        <g transform="matrix(0.895291,0,0,0.895291,40.0028,40.4125)">
            <path d="M394.003,82.362C389.964,78.322 364.723,54.873 364.723,54.873C358.996,59.97 353.149,65.043 346.812,70.082C336.194,79.976 325.045,89.791 314,99.721C310.443,102.92 306.858,106.554 303.148,110.049C290.155,121.975 277.17,133.91 264.162,145.821C260.111,149.531 255.705,153.314 250.832,157.089C234.814,172.02 174.761,226.352 161.074,237.932C157.98,240.55 152.913,241.773 148.688,241.938C137.766,242.366 123.798,230.026 122.106,219.251C121.31,214.182 122.505,209.618 126.322,206.042C129.229,203.318 161.308,176.034 173.963,165.061C177.849,161.691 181.715,158.297 185.863,154.793C199.346,142.688 213.091,130.45 226.59,118.362C230.805,114.587 235.087,110.886 239.746,107.427C241.695,105.98 269.064,80.908 283.885,67.79C286.254,65.693 312.5,42.098 326.648,29.289C332.064,24.385 337.312,19.293 342.82,14.498C347.914,10.062 353.253,5.909 358.242,1.316C362.357,1 366.714,1 371.535,1C371.87,1.264 371.576,1.712 371.634,1.765C390.05,18.2 408.577,34.511 426.896,51.053C437.833,60.929 448.702,71.417 459.192,81.812C469.434,90.726 479.181,99.678 488.861,108.702C497.945,117.172 513.884,133.559 515.954,134.991C522.522,139.532 528.576,144.338 528.044,153.27C527.956,154.746 527.906,156.381 527.255,157.642C520.099,171.519 501.515,185.192 485.173,168.779C474.373,157.932 462.749,147.906 451.353,137.22C449.492,135.476 433.624,121.21 425.095,113.074C414.632,103.093 404.452,92.815 394.003,82.362Z" style="fill:var(--current);"/>
        </g>
        <g transform="matrix(0.895291,0,0,0.895291,40.0028,40.4125)">
            <path d="M61.405,603.318C51.242,584.986 44.225,565.14 38.56,545.19C29.26,512.439 23.77,479.133 25.463,444.422C26.41,408.809 29.836,372.978 41.04,338.826C42.685,333.813 45.228,329.07 47.61,324.329C50.452,318.671 55.604,316.331 61.367,317.839C67.339,319.402 73.434,321.682 78.554,325.049C87.049,330.637 88.259,336.02 85.085,345.6C73.737,379.855 68.183,415.481 68.583,452.027C69.291,476.841 72.292,501.345 78.407,525.437C86.221,556.226 98.499,585.505 115.176,612.929C127.857,632.121 141.793,650.3 158.236,666.469C203.44,710.915 257.047,738.654 320.159,746.641C366.096,752.454 411.059,746.652 455.581,732.916C457.544,732.31 482.977,721.276 495.67,713.495C513.797,702.383 523.685,711.136 532.377,725.528C536.905,733.023 534.031,741.991 526.781,747.045C523.259,749.5 514.992,753.748 514.992,753.748C483.721,770.17 450.747,781.66 415.981,787.984C415.387,788.093 389.01,791.106 361.821,791.124C332.8,791.142 302.854,788.159 302.354,788.066C232.008,775.088 172.225,742.43 122.344,691.399C104.48,673.122 89.027,652.92 75.928,630.983C70.625,622.102 65.987,612.824 61.405,603.318Z" style="fill:var(--current);"/>
        </g>
    </g>
</svg>
