<?xml version="1.0" encoding="UTF-8" standalone="no"?>
<!DOCTYPE svg PUBLIC "-//W3C//DTD SVG 1.1//EN" "http://www.w3.org/Graphics/SVG/1.1/DTD/svg11.dtd">
<svg width="100%" height="100%" viewBox="0 0 2254 479" version="1.1" xmlns="http://www.w3.org/2000/svg" xmlns:xlink="http://www.w3.org/1999/xlink" xml:space="preserve" xmlns:serif="http://www.serif.com/" style="fill-rule:evenodd;clip-rule:evenodd;stroke-linejoin:round;stroke-miterlimit:2;">
    <g transform="matrix(1,0,0,1,-31,-2.13521)">
        <g transform="matrix(1,0,0,1,287.871,2.33594)">
            <path d="M0,0C1.033,0.549 2.065,1.098 3.129,1.664C4.287,2.255 4.287,2.255 5.469,2.857C8.361,4.352 11.214,5.908 14.066,7.477C15.121,8.052 16.176,8.627 17.262,9.22C25.5,13.729 33.671,18.351 41.832,22.997C48.47,26.764 55.182,30.356 61.956,33.872C67.99,37.021 73.908,40.348 79.816,43.727C89.157,49.062 98.615,54.147 108.129,59.164C118.291,64.523 128.359,69.998 138.328,75.711C146.504,80.37 154.806,84.774 163.129,89.164C173.288,94.522 183.354,99.993 193.319,105.707C200.198,109.627 207.158,113.371 214.164,117.057C216.963,118.531 219.745,120.033 222.516,121.561C229.204,125.225 235.485,128.494 242.935,130.4C247.146,132.376 250.343,134.921 253.129,138.664C254.198,141.945 254.272,145.024 254.266,148.457C254.303,149.826 254.303,149.826 254.341,151.222C254.519,160.724 253.924,170.201 253.129,179.664C248.852,178.357 245.12,176.711 241.219,174.531C240.079,173.898 238.94,173.265 237.766,172.613C236.533,171.922 235.299,171.231 234.066,170.539C232.772,169.818 231.478,169.098 230.184,168.379C227.496,166.885 224.81,165.388 222.125,163.89C216.566,160.791 210.992,157.72 205.418,154.65C202.404,152.989 199.392,151.327 196.379,149.664C195.171,148.997 193.962,148.331 192.754,147.664C98.504,95.664 98.504,95.664 96.691,94.664C95.483,93.997 94.275,93.331 93.066,92.664C90.047,90.998 87.028,89.332 84.008,87.666C78.554,84.657 73.099,81.647 67.643,78.64C65.185,77.285 62.726,75.93 60.268,74.574C58.625,73.668 56.981,72.763 55.338,71.857C42.584,64.825 29.861,57.737 17.129,50.664C16.799,180.024 16.469,309.384 16.129,442.664L218.129,442.664L218.129,240.664C216.149,240.004 214.169,239.344 212.129,238.664C210.128,237.689 208.149,236.668 206.191,235.609C205.061,235.001 203.93,234.392 202.765,233.765C201.553,233.107 200.341,232.448 199.129,231.789C197.868,231.108 196.606,230.427 195.345,229.747C191.602,227.726 187.865,225.696 184.129,223.664C183.115,223.113 182.101,222.562 181.057,221.994C176.549,219.542 172.045,217.084 167.543,214.621C161.788,211.475 156.022,208.349 150.254,205.227C149.257,204.687 148.261,204.147 147.234,203.592C144.199,201.949 141.164,200.306 138.129,198.664C126.101,192.156 114.076,185.644 102.066,179.102C100.719,178.369 100.719,178.369 99.345,177.621C98.499,177.159 97.653,176.698 96.781,176.223C96.049,175.824 95.317,175.425 94.562,175.013C91.401,173.26 88.267,171.458 85.129,169.664C84.799,182.204 84.469,194.744 84.129,207.664C85.779,208.324 87.429,208.984 89.129,209.664C90.703,210.485 92.261,211.335 93.805,212.211C94.704,212.72 95.604,213.228 96.53,213.753C97.491,214.301 98.452,214.849 99.441,215.414C100.439,215.981 101.438,216.548 102.466,217.132C132.423,234.194 132.423,234.194 139.129,238.664C139.49,241.296 139.49,241.296 139.469,244.674C139.469,245.935 139.469,247.197 139.469,248.496C139.453,249.878 139.438,251.259 139.422,252.641C139.416,254.05 139.412,255.46 139.409,256.869C139.398,260.582 139.368,264.294 139.335,268.006C139.304,271.793 139.291,275.58 139.275,279.367C139.243,286.8 139.192,294.232 139.129,301.664C139.764,301.648 140.399,301.633 141.053,301.616C143.953,301.554 146.853,301.515 149.754,301.477C151.252,301.439 151.252,301.439 152.781,301.4C158.326,301.345 162.379,301.452 167.129,304.664C172.737,310.4 174.372,315.467 174.404,323.385C174.413,324.703 174.423,326.021 174.432,327.38C174.432,328.806 174.431,330.233 174.43,331.66C174.434,333.137 174.438,334.614 174.443,336.091C174.45,339.18 174.45,342.269 174.445,345.358C174.439,349.303 174.456,353.248 174.479,357.193C174.494,360.241 174.495,363.289 174.491,366.337C174.492,367.791 174.497,369.245 174.507,370.699C174.605,386.654 174.605,386.654 168.691,393.477C164.08,397.413 161.068,397.919 154.977,397.955C154.264,397.961 153.552,397.968 152.817,397.975C150.465,397.994 148.114,397.998 145.762,398C144.123,398.006 142.484,398.013 140.845,398.02C137.41,398.032 133.975,398.036 130.541,398.035C126.147,398.034 121.753,398.062 117.36,398.096C113.974,398.118 110.589,398.123 107.204,398.121C105.584,398.124 103.965,398.133 102.346,398.148C100.076,398.168 97.809,398.162 95.54,398.15C93.606,398.154 93.606,398.154 91.633,398.159C86.129,397.382 83.114,394.969 79.816,390.602C77.271,386.171 76.996,383.037 76.968,377.993C76.963,377.319 76.958,376.646 76.953,375.952C76.938,373.724 76.931,371.497 76.926,369.27C76.92,367.719 76.914,366.168 76.909,364.617C76.898,361.365 76.892,358.113 76.889,354.86C76.883,350.701 76.859,346.541 76.831,342.382C76.812,339.178 76.807,335.974 76.805,332.769C76.802,331.236 76.794,329.703 76.781,328.17C76.764,326.021 76.766,323.873 76.772,321.723C76.769,320.502 76.765,319.281 76.761,318.023C77.35,312.645 79.45,308.752 83.629,305.352C84.217,304.86 84.805,304.369 85.41,303.863C92.581,298.86 101.62,301.664 110.129,301.664C109.799,286.484 109.469,271.304 109.129,255.664C105.932,253.932 102.735,252.199 99.441,250.414C91.61,246.151 83.813,241.831 76.066,237.414C75.261,236.956 74.455,236.498 73.624,236.026C72.048,235.123 70.487,234.192 68.945,233.231C66.129,231.557 66.129,231.557 62.833,230.527C58.77,228.825 55.673,227.342 53.129,223.664C50.638,215.496 51.624,206.369 51.859,197.945C51.884,195.401 51.902,192.856 51.915,190.312C51.96,184.311 52.062,178.314 52.193,172.314C52.338,165.48 52.41,158.646 52.475,151.811C52.61,137.76 52.839,123.712 53.129,109.664C55.351,110.768 57.572,111.873 59.793,112.979C60.415,113.288 61.038,113.597 61.68,113.915C67.124,116.63 72.42,119.566 77.691,122.602C86.508,127.629 95.363,132.582 104.254,137.477C104.861,137.811 105.467,138.145 106.092,138.489C109.194,140.197 112.296,141.905 115.398,143.611C121.519,146.979 127.637,150.352 133.754,153.727C134.355,154.058 134.956,154.389 135.575,154.731C145.383,160.14 155.177,165.575 164.965,171.02C172.568,175.247 180.18,179.456 187.798,183.655C226.497,204.986 226.497,204.986 243.254,214.539C244.143,215.045 245.033,215.552 245.949,216.073C247.156,216.764 247.156,216.764 248.387,217.469C249.089,217.871 249.792,218.273 250.516,218.687C252.129,219.664 252.129,219.664 253.129,220.664L253.129,475.664L-256.871,475.664L-256.871,220.664C-247.036,214.879 -237.31,209.176 -227.246,203.852C-218.959,199.428 -210.723,194.935 -202.559,190.289C-193.989,185.413 -185.383,180.608 -176.746,175.852C-176.138,175.517 -175.53,175.182 -174.904,174.837C-171.804,173.129 -168.703,171.423 -165.602,169.717C-159.481,166.349 -153.363,162.976 -147.246,159.602C-146.646,159.271 -146.046,158.94 -145.427,158.599C-129.915,150.041 -114.432,141.431 -98.953,132.813C-88.067,126.754 -77.174,120.709 -66.246,114.727C-65.309,114.212 -64.372,113.697 -63.407,113.167C-62.132,112.472 -62.132,112.472 -60.832,111.762C-60.087,111.354 -59.343,110.947 -58.576,110.528C-56.871,109.664 -56.871,109.664 -55.871,109.664L-55.871,223.664C-79.514,237.174 -79.514,237.174 -88.934,242.477C-95.96,246.433 -102.953,250.426 -109.859,254.59C-111.871,255.664 -111.871,255.664 -113.871,255.664L-113.871,285.664L-142.871,285.664C-142.894,280.096 -142.914,274.527 -142.926,268.959C-142.931,267.066 -142.938,265.174 -142.947,263.282C-142.959,260.554 -142.964,257.826 -142.969,255.098C-142.976,253.839 -142.976,253.839 -142.984,252.556C-142.986,239.943 -142.986,239.943 -140.438,237.02C-139.446,236.441 -139.446,236.441 -138.434,235.852C-137.611,235.36 -136.789,234.869 -135.941,234.363C-134.928,233.803 -133.915,233.242 -132.871,232.664C-131.618,231.962 -130.366,231.261 -129.113,230.559C-126.925,229.338 -124.733,228.123 -122.535,226.919C-114.534,222.53 -106.682,217.894 -98.844,213.223C-97.865,212.645 -96.887,212.068 -95.879,211.473C-95.009,210.955 -94.139,210.437 -93.243,209.904C-90.871,208.664 -90.871,208.664 -86.871,207.664C-87.201,195.124 -87.531,182.584 -87.871,169.664C-99.485,175.652 -111.029,181.676 -122.371,188.164C-130.921,193.052 -139.569,197.697 -148.319,202.217C-157.632,207.035 -166.824,212.06 -176.016,217.104C-182.092,220.424 -188.19,223.702 -194.283,226.991C-200.982,230.615 -207.639,234.305 -214.228,238.126C-218.658,240.664 -218.658,240.664 -220.871,240.664L-220.871,442.664L-18.871,442.664C-19.201,313.304 -19.531,183.944 -19.871,50.664C-35.111,58.828 -50.229,66.939 -65.23,75.484C-71.067,78.793 -76.963,81.985 -82.871,85.164C-90.717,89.386 -98.505,93.692 -106.246,98.102C-115.48,103.36 -124.809,108.422 -134.179,113.433C-141.298,117.251 -148.353,121.164 -155.371,125.164C-164.682,130.471 -174.087,135.585 -183.533,140.647C-191.839,145.099 -200.091,149.637 -208.315,154.237C-211.345,155.929 -214.379,157.613 -217.414,159.297C-217.991,159.617 -218.568,159.937 -219.162,160.267C-221.528,161.58 -223.894,162.893 -226.261,164.205C-231.875,167.316 -237.485,170.43 -243.051,173.625C-243.795,174.051 -244.539,174.477 -245.306,174.916C-246.638,175.68 -247.967,176.45 -249.292,177.227C-252.062,178.817 -253.614,179.664 -256.871,179.664L-256.871,138.664C-253.055,136.622 -249.24,134.58 -245.309,132.477C-236.456,127.725 -227.662,122.891 -218.934,117.914C-211.378,113.607 -203.763,109.462 -196.044,105.456C-190.01,102.307 -184.092,98.98 -178.184,95.602C-168.843,90.266 -159.385,85.181 -149.871,80.164C-140.629,75.29 -131.438,70.36 -122.371,65.164C-112.62,59.576 -102.718,54.303 -92.779,49.061C-83.318,44.068 -73.958,38.94 -64.676,33.619C-55.107,28.166 -45.364,23.049 -35.612,17.932C-29.452,14.692 -23.35,11.411 -17.371,7.844C-16.408,7.271 -15.446,6.698 -14.454,6.108C-12.704,5.054 -10.964,3.982 -9.238,2.89C-3.723,-0.436 -3.723,-0.436 0,0ZM103.129,328.664C100.805,332.646 100.822,336.696 100.828,341.195C100.824,341.909 100.82,342.622 100.815,343.358C100.809,344.86 100.809,346.363 100.813,347.866C100.816,350.157 100.793,352.447 100.768,354.738C100.765,356.203 100.765,357.668 100.766,359.133C100.756,359.813 100.747,360.493 100.738,361.194C100.78,365.524 101.474,368.229 104.129,371.664C107.901,374.179 110.964,374.005 115.34,374.035C116.548,374.049 116.548,374.049 117.78,374.063C119.483,374.077 121.186,374.086 122.889,374.09C125.488,374.101 128.085,374.151 130.684,374.201C132.34,374.211 133.996,374.218 135.652,374.223C136.814,374.252 136.814,374.252 137.998,374.282C141.796,374.25 143.937,373.792 147.115,371.668C149.796,367.67 149.87,364.756 149.828,360.039C149.835,359.215 149.842,358.39 149.85,357.541C149.858,355.802 149.853,354.064 149.836,352.326C149.816,349.671 149.856,347.022 149.9,344.367C149.901,342.674 149.898,340.982 149.891,339.289C149.906,338.499 149.921,337.71 149.937,336.896C149.846,332.584 149.474,331.071 146.585,327.662C142.597,325.357 139.546,324.968 135.063,325.07C134.306,325.07 133.549,325.07 132.77,325.07C131.179,325.076 129.588,325.093 127.997,325.122C125.57,325.164 123.145,325.163 120.717,325.156C119.165,325.167 117.614,325.18 116.063,325.195C115.342,325.196 114.621,325.196 113.878,325.196C109.487,325.299 106.531,325.815 103.129,328.664Z" style="fill-rule:nonzero;"/>
        </g>
        <g transform="matrix(1,0,0,1,1276,223)">
            <path d="M0,0L33,0L33,225L140,225C140.66,222.03 141.32,219.06 142,216C142.884,213.104 143.795,210.241 144.766,207.375C145.035,206.569 145.304,205.762 145.582,204.932C146.466,202.286 147.358,199.643 148.25,197C148.885,195.108 149.52,193.215 150.154,191.323C154.783,177.534 159.475,163.766 164.189,150.006C169.551,134.349 174.856,118.673 180.158,102.996C186.738,83.537 193.32,64.079 199.936,44.632C200.588,42.714 201.24,40.796 201.892,38.878C203.919,32.915 205.953,26.955 208,21C208.319,20.072 208.638,19.145 208.966,18.189C209.933,15.381 210.905,12.575 211.879,9.77C212.177,8.903 212.476,8.037 212.783,7.145C214.885,1.115 214.885,1.115 216,0C219.03,-0.089 222.037,-0.115 225.066,-0.098C225.975,-0.096 226.884,-0.095 227.82,-0.093C230.734,-0.088 233.648,-0.075 236.563,-0.063C238.533,-0.057 240.504,-0.053 242.475,-0.049C247.316,-0.038 252.158,-0.021 257,0C257.295,0.874 257.589,1.747 257.893,2.647C276.143,56.792 276.143,56.792 294.564,110.879C297.712,120.073 300.84,129.272 303.97,138.472C309.041,153.377 314.117,168.281 319.206,183.181C320.055,185.665 320.903,188.15 321.75,190.635C324.535,198.797 327.327,206.956 330.133,215.11C331.542,219.203 332.947,223.298 334.351,227.394C335.029,229.369 335.71,231.344 336.391,233.318C337.335,236.052 338.274,238.787 339.211,241.523C339.495,242.34 339.778,243.157 340.07,243.998C341.132,247.111 342,249.687 342,253L306,253C303.436,245.399 303.436,245.399 300.82,237.645C299.736,234.432 298.651,231.219 297.566,228.006C295.845,222.908 294.124,217.81 292.405,212.712C291.018,208.6 289.631,204.49 288.242,200.379C287.713,198.812 287.184,197.245 286.656,195.678C285.915,193.48 285.173,191.282 284.43,189.085C284.008,187.835 283.586,186.585 283.152,185.297C282.44,183.259 281.681,181.236 280.848,179.245C280,177 280,177 280,174L191,174C190.01,177.63 189.02,181.26 188,185C187.242,187.433 186.462,189.859 185.656,192.276C185.442,192.918 185.229,193.56 185.009,194.221C184.319,196.296 183.624,198.369 182.93,200.441C182.443,201.901 181.956,203.36 181.47,204.819C180.458,207.853 179.445,210.886 178.429,213.918C177.127,217.808 175.829,221.698 174.532,225.59C173.531,228.592 172.529,231.593 171.526,234.595C171.046,236.03 170.567,237.466 170.088,238.902C169.422,240.898 168.754,242.894 168.085,244.889C167.516,246.591 167.516,246.591 166.935,248.328C166,251 166,251 165,253C146.664,253.987 128.354,254.137 109.997,254.101C106.494,254.095 102.99,254.095 99.486,254.095C89.324,254.089 79.162,254.075 69,254.063C46.23,254.042 23.46,254.021 0,254L0,0ZM235,31C233.302,35.888 231.761,40.765 230.441,45.77C225.304,65.139 219.109,84.129 212.75,103.125C212.529,103.787 212.307,104.449 212.079,105.132C210.573,109.634 209.062,114.134 207.547,118.633C207.164,119.772 206.781,120.91 206.386,122.084C204.827,126.693 203.261,131.298 201.605,135.874C201.374,136.515 201.142,137.155 200.903,137.815C200.25,139.616 199.592,141.414 198.934,143.212C197.894,145.826 197.894,145.826 198,148L273,148C271.329,142.968 269.659,137.935 267.938,132.75C267.362,131.015 266.787,129.28 266.194,127.493C263.262,118.678 260.278,109.884 257.215,101.113C249.148,77.96 241.992,54.779 236,31L235,31Z" style="fill-rule:nonzero;"/>
        </g>
        <g transform="matrix(1,0,0,1,1785,222)">
            <path d="M0,0L31,0L31,254L-3,254C-12.141,243.393 -12.141,243.393 -14.141,238.398C-16.971,231.86 -20.564,226.088 -24.438,220.125C-25.701,218.109 -26.96,216.091 -28.215,214.07C-31.972,208.044 -35.735,202.022 -39.5,196C-43.287,189.942 -47.073,183.884 -50.855,177.824C-56.59,168.64 -62.332,159.461 -68.125,150.313C-73.866,141.237 -79.545,132.124 -85.169,122.976C-86.451,120.892 -87.736,118.809 -89.022,116.728C-98.888,100.754 -108.251,84.621 -117,68C-117.984,66.142 -118.968,64.284 -119.953,62.426C-126.177,50.658 -126.177,50.658 -129,45C-128.97,45.75 -128.94,46.5 -128.91,47.273C-128.03,70.183 -127.863,93.062 -127.899,115.986C-127.905,120.861 -127.905,125.736 -127.907,130.612C-127.91,139.787 -127.918,148.962 -127.928,158.137C-127.939,168.607 -127.945,179.077 -127.95,189.546C-127.96,211.031 -127.978,232.515 -128,254L-159,254L-159,1L-122,1C-111.784,12.616 -111.784,12.616 -109.715,17.77C-107.376,23.226 -104.641,28.079 -101.438,33.063C-100.554,34.515 -99.673,35.969 -98.797,37.426C-93.934,45.425 -88.85,53.286 -83.807,61.172C-80.824,65.84 -77.849,70.514 -74.875,75.188C-74.294,76.1 -73.713,77.013 -73.115,77.953C-67.878,86.184 -62.667,94.431 -57.463,102.682C-55.992,105.012 -54.518,107.34 -53.043,109.668C-50.02,114.44 -47.008,119.218 -44,124C-43.489,124.811 -42.977,125.623 -42.45,126.458C-26.219,152.252 -11.571,178.727 2,206C1.855,202.625 1.709,199.25 1.563,195.875C1.523,194.962 1.484,194.05 1.443,193.109C1.381,191.659 1.381,191.659 1.316,190.18C1.272,189.123 1.228,188.065 1.182,186.976C1.057,184.248 0.916,181.526 0.754,178.8C-0.233,161.294 -0.131,143.785 -0.101,126.259C-0.095,121.805 -0.095,117.352 -0.093,112.898C-0.09,104.502 -0.082,96.105 -0.072,87.709C-0.061,78.134 -0.055,68.56 -0.05,58.985C-0.04,39.323 -0.022,19.662 0,0Z" style="fill-rule:nonzero;"/>
        </g>
        <g transform="matrix(1,0,0,1,1049,243)">
            <path d="M0,0C0.731,0.576 1.462,1.152 2.215,1.746C25.569,21.031 36.937,51.856 41,81C41.145,82.006 41.145,82.006 41.292,83.032C46.128,120.634 39.293,162.422 16.5,193.375C15.016,195.262 13.517,197.138 12,199C11.388,199.777 10.775,200.555 10.145,201.355C-7.979,223.188 -36.014,234.671 -63.691,237.535C-93.719,240.017 -123.896,232.731 -147.363,213.316C-156.685,205.127 -164.45,196.634 -171,186C-171.345,185.44 -171.69,184.88 -172.046,184.303C-178.54,173.556 -182.652,162.067 -186,150C-186.227,149.183 -186.455,148.366 -186.689,147.524C-192.851,124.021 -192.781,94.606 -187,71C-186.834,70.271 -186.667,69.542 -186.496,68.791C-181.342,46.516 -171.13,27.123 -156,10C-155.389,9.305 -154.778,8.61 -154.148,7.895C-134.679,-12.859 -105.868,-23.538 -77.945,-24.938C-49.036,-25.395 -22.802,-18.391 0,0ZM-119,18C-119.612,18.425 -120.225,18.851 -120.855,19.289C-140.369,34.399 -150.261,62.007 -153.333,85.548C-157.119,117.626 -153.768,152.219 -134,179C-130.597,183.267 -126.88,187.167 -123,191C-122.128,191.888 -122.128,191.888 -121.238,192.793C-107.636,205.573 -89.043,210.404 -70.813,210.211C-50.418,209.083 -33.451,200.391 -19.41,185.816C-4.475,168.363 3.687,145.66 6,123C6.067,122.362 6.134,121.724 6.203,121.067C9.335,89.31 3.076,55.454 -17.258,30.195C-19.429,27.707 -21.671,25.341 -24,23C-24.661,22.304 -25.323,21.608 -26.004,20.891C-35.046,12.038 -47.678,6.431 -60,4C-61.093,3.773 -62.186,3.546 -63.313,3.313C-84.047,1.555 -101.981,6.003 -119,18Z" style="fill-rule:nonzero;"/>
        </g>
        <g transform="matrix(1,0,0,1,2278,231)">
            <path d="M0,0C-1.216,6.078 -2.816,11.995 -4.563,17.938C-4.895,19.074 -4.895,19.074 -5.235,20.234C-6.87,25.74 -6.87,25.74 -8,28C-9.114,27.608 -10.227,27.216 -11.375,26.813C-45.188,15.648 -83.091,12.413 -115.874,28.8C-122.887,32.463 -129.103,36.692 -135,42C-136.007,42.868 -136.007,42.868 -137.035,43.754C-147.694,53.565 -154.465,66.424 -159,80C-159.389,81.145 -159.779,82.289 -160.18,83.469C-168.805,111.927 -166.505,146.348 -152.995,172.981C-141.692,194.111 -123.898,208.066 -101.188,215.375C-75.653,222.478 -50.393,220.348 -25,214L-25,139L-77,139L-77,112L7,112L7,235C-5.068,239.023 -16.634,242.407 -29,245C-29.769,245.168 -30.537,245.336 -31.329,245.509C-44.317,248.24 -57.41,248.311 -70.625,248.375C-71.489,248.383 -72.353,248.391 -73.244,248.399C-109.104,248.652 -140.558,238.846 -167,214C-167.905,213.209 -167.905,213.209 -168.828,212.402C-190.616,192.498 -199.621,158.359 -201.164,129.982C-202.61,91.444 -192.74,56.227 -166.539,27.281C-128.107,-12.841 -49.736,-26.859 0,0Z" style="fill-rule:nonzero;"/>
        </g>
        <g transform="matrix(1,0,0,1,1966.88,222.886)">
            <path d="M0,0C1.73,0 3.459,0.006 5.189,0.016C6.098,0.017 7.006,0.019 7.943,0.02C10.857,0.026 13.771,0.038 16.685,0.051C18.656,0.056 20.627,0.061 22.597,0.065C27.439,0.076 32.281,0.093 37.123,0.114C37.417,0.987 37.712,1.861 38.016,2.761C56.266,56.906 56.266,56.906 74.687,110.993C77.835,120.186 80.963,129.386 84.092,138.585C89.164,153.491 94.24,168.395 99.329,183.294C100.178,185.779 101.026,188.264 101.873,190.749C104.658,198.91 107.45,207.069 110.256,215.223C111.665,219.317 113.069,223.412 114.474,227.507C115.152,229.483 115.832,231.457 116.514,233.431C117.458,236.165 118.397,238.901 119.334,241.637C119.617,242.454 119.901,243.27 120.193,244.112C121.254,247.224 122.123,249.801 122.123,253.114L86.123,253.114C83.559,245.513 83.559,245.513 80.943,237.758C79.859,234.545 78.774,231.332 77.689,228.119C75.968,223.022 74.247,217.924 72.528,212.825C71.141,208.714 69.754,204.603 68.365,200.493C67.836,198.926 67.307,197.359 66.779,195.791C66.038,193.593 65.296,191.396 64.553,189.199C64.131,187.949 63.709,186.698 63.274,185.41C62.563,183.372 61.803,181.35 60.971,179.358C60.123,177.114 60.123,177.114 60.123,174.114L-28.877,174.114C-29.867,177.744 -30.857,181.374 -31.877,185.114C-32.635,187.546 -33.415,189.972 -34.221,192.389C-34.542,193.352 -34.542,193.352 -34.868,194.335C-35.558,196.409 -36.253,198.482 -36.948,200.555C-37.434,202.014 -37.921,203.473 -38.407,204.933C-39.419,207.966 -40.433,210.999 -41.448,214.032C-42.75,217.921 -44.048,221.812 -45.345,225.703C-46.346,228.705 -47.348,231.707 -48.351,234.708C-48.831,236.144 -49.31,237.579 -49.789,239.015C-50.455,241.012 -51.123,243.007 -51.792,245.002C-52.171,246.137 -52.551,247.272 -52.942,248.441C-53.877,251.114 -53.877,251.114 -54.877,253.114L-89.877,253.114C-86.502,240.738 -86.502,240.738 -84.771,235.644C-84.187,233.918 -84.187,233.918 -83.592,232.157C-83.177,230.941 -82.762,229.725 -82.334,228.473C-81.889,227.161 -81.444,225.849 -81,224.537C-79.813,221.038 -78.623,217.54 -77.431,214.042C-76.178,210.36 -74.928,206.676 -73.678,202.993C-70.967,195.007 -68.25,187.022 -65.532,179.038C-64.56,176.182 -63.588,173.326 -62.616,170.469C-60.055,162.942 -57.493,155.414 -54.927,147.888C-49.617,132.306 -44.335,116.714 -39.057,101.122C-32.718,82.396 -26.377,63.67 -20.011,44.954C-19.354,43.023 -18.698,41.092 -18.042,39.161C-14.721,29.388 -11.378,19.623 -7.994,9.871C-7.696,9.006 -7.398,8.141 -7.091,7.249C-4.611,0.135 -4.611,0.135 0,0ZM15.123,31.114C13.424,36.002 11.884,40.879 10.564,45.883C5.426,65.253 -0.768,84.243 -7.127,103.239C-7.349,103.901 -7.57,104.563 -7.798,105.245C-9.304,109.747 -10.816,114.247 -12.33,118.746C-12.713,119.885 -13.097,121.024 -13.491,122.197C-15.05,126.807 -16.617,131.412 -18.272,135.987C-18.504,136.628 -18.735,137.269 -18.974,137.929C-19.627,139.729 -20.285,141.527 -20.943,143.326C-21.983,145.94 -21.983,145.94 -21.877,148.114L53.123,148.114C51.452,143.081 49.782,138.049 48.06,132.864C47.485,131.129 46.909,129.394 46.316,127.606C43.385,118.791 40.401,109.997 37.338,101.227C29.271,78.073 22.115,54.893 16.123,31.114L15.123,31.114Z" style="fill-rule:nonzero;"/>
        </g>
        <g transform="matrix(1,0,0,1,1239.73,242.703)">
            <path d="M0,0C0.75,0.758 1.5,1.516 2.273,2.297C2.982,2.972 3.691,3.648 4.422,4.344C17.167,17.333 20.867,35.503 20.711,53.109C20.702,54.336 20.693,55.563 20.684,56.827C20.327,75.528 14.916,93.509 1.547,107.129C0.797,107.844 0.046,108.56 -0.727,109.297C-1.436,110.002 -2.145,110.707 -2.875,111.434C-13.155,121.176 -25.349,126.349 -38.727,130.297C-39.421,130.51 -40.115,130.723 -40.83,130.943C-56.37,135.508 -72.596,134.736 -88.629,134.535C-89.742,134.524 -89.742,134.524 -90.877,134.512C-94.686,134.443 -97.954,134.051 -101.727,133.297C-102.057,166.297 -102.387,199.297 -102.727,233.297L-135.727,233.297L-135.727,-17.703C-111.106,-21.22 -111.106,-21.22 -102.727,-21.703C-101.714,-21.763 -100.701,-21.822 -99.658,-21.884C-66.134,-23.674 -26.061,-25.134 0,0ZM-89.727,5.234C-91.126,5.365 -91.126,5.365 -92.554,5.497C-93.436,5.585 -94.318,5.672 -95.227,5.762C-96.021,5.84 -96.815,5.919 -97.633,6C-99.914,6.259 -99.914,6.259 -102.727,7.297L-102.727,105.297C-78.573,109.688 -54.051,109.519 -32.727,96.297C-21.356,88.372 -15.512,76.371 -13.074,62.996C-11.181,48.3 -14.015,35.649 -22.066,23.23C-30.671,12.082 -45.823,6.711 -59.348,4.957C-69.595,3.896 -79.489,4.281 -89.727,5.234Z" style="fill-rule:nonzero;"/>
        </g>
        <g transform="matrix(1,0,0,1,792.438,218.625)">
            <path d="M0,0C0.751,0.001 1.501,0.001 2.275,0.002C20.99,0.064 38.649,2.918 55.563,11.375C54.929,17.638 53.132,23.3 51.125,29.25C50.656,30.692 50.656,30.692 50.178,32.164C49.72,33.533 49.72,33.533 49.254,34.93C48.977,35.76 48.701,36.59 48.416,37.445C47.563,39.375 47.563,39.375 45.563,40.375C43.162,39.373 40.843,38.311 38.5,37.188C18.945,28.266 -3.651,25.357 -24.375,32.063C-34.516,36.189 -41.158,43.362 -46.313,52.813C-49.258,61.718 -48.815,73.829 -44.676,82.25C-44.267,82.951 -43.859,83.653 -43.438,84.375C-43.06,85.056 -42.682,85.736 -42.293,86.438C-31.906,102.504 -7.827,109.632 8.938,116.438C22.51,121.974 34.511,128.616 45.563,138.375C46.195,138.925 46.828,139.476 47.48,140.043C57.977,149.798 64.773,164.047 65.769,178.343C65.866,181.627 65.885,184.902 65.875,188.188C65.891,189.286 65.907,190.385 65.924,191.518C65.935,210.413 58.48,225.95 45.547,239.484C27.438,256.788 2.005,262.018 -22.25,261.75C-22.994,261.746 -23.738,261.741 -24.504,261.737C-47.734,261.579 -67.688,256.72 -88.438,246.375C-86.077,236.596 -83.522,226.955 -80.438,217.375C-75.936,218.759 -71.894,220.58 -67.688,222.688C-45.515,233.265 -19.554,236.815 4.063,229.188C10.113,226.822 14.871,223.854 19.563,219.375C20.136,218.83 20.71,218.284 21.301,217.723C29.064,209.535 30.951,198.837 30.84,187.926C30.104,178.506 27.059,170.257 20.563,163.375C20.019,162.756 19.475,162.137 18.914,161.5C7.276,149.72 -10.439,143.81 -25.532,137.934C-49.036,128.725 -69.094,115.491 -79.613,91.738C-85.329,75.35 -84.368,55.349 -76.874,39.776C-67.153,20.665 -50.646,9.907 -30.715,3.234C-20.471,0.548 -10.533,-0.029 0,0Z" style="fill-rule:nonzero;"/>
        </g>
        <g transform="matrix(1,0,0,1,656,223)">
            <rect x="0" y="0" width="33" height="253" style="fill-rule:nonzero;"/>
        </g>
        <g transform="matrix(1,0,0,1,125.031,356.504)">
            <path d="M0,0C1.009,-0.002 1.009,-0.002 2.039,-0.004C3.458,-0.003 4.877,0.009 6.295,0.03C8.462,0.059 10.626,0.05 12.793,0.037C14.174,0.043 15.556,0.052 16.938,0.063C18.816,0.077 18.816,0.077 20.732,0.092C24.169,0.521 25.571,1.043 27.969,3.496C29.772,8.904 29.239,14.711 29.281,20.371C29.31,21.651 29.339,22.931 29.369,24.25C29.378,25.484 29.386,26.717 29.395,27.988C29.409,29.116 29.424,30.244 29.439,31.406C28.867,35.166 27.595,36.798 24.969,39.496C20.761,41.6 15.331,40.805 10.702,40.846C9.343,40.863 7.985,40.89 6.626,40.928C4.662,40.983 2.696,41.002 0.73,41.02C-1.034,41.049 -1.034,41.049 -2.833,41.08C-7.087,40.303 -8.505,38.972 -11.031,35.496C-11.662,32.146 -11.662,32.146 -11.66,28.367C-11.663,27.696 -11.665,27.024 -11.667,26.332C-11.666,24.919 -11.653,23.507 -11.628,22.094C-11.594,19.936 -11.608,17.781 -11.627,15.623C-11.62,14.246 -11.61,12.869 -11.598,11.492C-11.587,10.246 -11.576,9 -11.565,7.717C-11.031,4.496 -11.031,4.496 -9.435,2.09C-6.169,-0.075 -3.903,-0.006 0,0Z" style="fill-rule:nonzero;"/>
        </g>
        <g transform="matrix(1,0,0,1,185.812,302.75)">
            <path d="M0,0C1.927,-0.031 1.927,-0.031 3.893,-0.063C5.131,-0.068 6.369,-0.073 7.645,-0.078C8.779,-0.087 9.913,-0.097 11.081,-0.106C14.544,0.291 16.41,1.181 19.188,3.25C21.328,7.531 20.456,13.191 20.483,17.944C20.5,20.044 20.544,22.144 20.588,24.244C20.598,25.586 20.607,26.928 20.613,28.27C20.628,29.487 20.642,30.705 20.657,31.96C20.083,35.985 19.258,37.586 16.188,40.25C12.859,40.897 12.859,40.897 8.938,40.914C8.242,40.919 7.547,40.924 6.831,40.929C5.365,40.932 3.899,40.923 2.434,40.902C0.194,40.875 -2.041,40.902 -4.281,40.934C-5.708,40.93 -7.135,40.924 -8.563,40.914C-9.857,40.908 -11.151,40.903 -12.484,40.897C-15.813,40.25 -15.813,40.25 -18.232,38.14C-20.15,34.632 -20.329,32.328 -20.344,28.34C-20.349,27.02 -20.354,25.701 -20.359,24.342C-20.351,23.66 -20.343,22.978 -20.334,22.275C-20.313,20.189 -20.334,18.107 -20.359,16.021C-20.354,14.703 -20.349,13.385 -20.344,12.027C-20.337,10.221 -20.337,10.221 -20.33,8.379C-19.717,4.674 -18.726,3.533 -15.813,1.25C-11.269,-1.022 -4.989,0.02 0,0Z" style="fill-rule:nonzero;"/>
        </g>
        <g transform="matrix(1,0,0,1,177.25,356.336)">
            <path d="M0,0C0.695,-0.005 1.39,-0.01 2.106,-0.014C3.572,-0.018 5.038,-0.009 6.504,0.012C8.744,0.039 10.979,0.012 13.219,-0.02C14.646,-0.016 16.073,-0.01 17.5,0C19.441,0.008 19.441,0.008 21.422,0.017C24.75,0.664 24.75,0.664 27.17,2.774C29.088,6.282 29.266,8.586 29.281,12.574C29.289,14.553 29.289,14.553 29.297,16.572C29.284,17.595 29.284,17.595 29.271,18.639C29.25,20.725 29.271,22.807 29.297,24.893C29.292,26.211 29.287,27.529 29.281,28.887C29.277,30.091 29.272,31.295 29.268,32.535C28.655,36.24 27.664,37.381 24.75,39.664C20.202,41.938 13.869,40.849 8.875,40.852C7.582,40.864 6.289,40.876 4.957,40.889C3.716,40.891 2.474,40.893 1.195,40.895C0.056,40.899 -1.083,40.903 -2.257,40.907C-5.211,40.667 -6.822,40.318 -9.25,38.664C-12.427,33.899 -11.622,28.467 -11.621,22.895C-11.625,20.803 -11.661,18.713 -11.699,16.621C-11.705,15.284 -11.709,13.947 -11.711,12.609C-11.719,11.398 -11.727,10.186 -11.736,8.938C-10.637,1.533 -7.047,0.031 0,0Z" style="fill-rule:nonzero;"/>
        </g>
        <g transform="matrix(1,0,0,1,125.656,302.469)">
            <path d="M0,0C1.27,-0.005 2.539,-0.01 3.848,-0.016C5.166,-0 6.485,0.015 7.844,0.031C9.822,0.008 9.822,0.008 11.84,-0.016C13.744,-0.008 13.744,-0.008 15.688,0C17.423,0.007 17.423,0.007 19.193,0.014C22.969,0.634 24.63,1.887 27.344,4.531C29.616,9.075 28.574,15.355 28.594,20.344C28.614,21.628 28.635,22.913 28.656,24.236C28.664,26.094 28.664,26.094 28.672,27.988C28.686,29.689 28.686,29.689 28.7,31.425C28.303,34.887 27.413,36.754 25.344,39.531C20.95,41.728 15.05,40.8 10.168,40.826C7.984,40.844 5.801,40.888 3.617,40.932C2.227,40.942 0.836,40.95 -0.555,40.957C-1.82,40.972 -3.085,40.986 -4.388,41.001C-7.656,40.531 -7.656,40.531 -10.065,38.958C-12.246,35.632 -12.189,33.243 -12.223,29.281C-12.229,28.586 -12.235,27.891 -12.241,27.175C-12.249,25.709 -12.245,24.243 -12.233,22.777C-12.219,20.538 -12.253,18.302 -12.291,16.063C-12.292,14.635 -12.29,13.208 -12.285,11.781C-12.286,10.487 -12.287,9.193 -12.287,7.859C-11.656,4.531 -11.656,4.531 -9.533,2.111C-6.101,0.226 -3.904,0.015 0,0Z" style="fill-rule:nonzero;"/>
        </g>
    </g>
</svg>
