<?xml version="1.0" encoding="UTF-8" standalone="no"?>
<!DOCTYPE svg PUBLIC "-//W3C//DTD SVG 1.1//EN" "http://www.w3.org/Graphics/SVG/1.1/DTD/svg11.dtd">
<svg width="100%" height="100%" viewBox="0 0 239 397" version="1.1" xmlns="http://www.w3.org/2000/svg" xmlns:xlink="http://www.w3.org/1999/xlink" xml:space="preserve" xmlns:serif="http://www.serif.com/" style="fill-rule:evenodd;clip-rule:evenodd;stroke-linejoin:round;stroke-miterlimit:2;">
    <g transform="matrix(1,0,0,1,-66.564,-56.0199)">
        <g id="A-Human-Standing" serif:id="A-Human/Standing" transform="matrix(1,0,0,1,40,27)">
            <g id="humaaans-standing-11" serif:id="humaaans/standing-11">
                <g id="A-Human-Standing1" serif:id="A-Human/Standing">
                    <g id="Head-Front-Short-Beard" serif:id="Head/Front/Short-Beard" transform="matrix(1,0,0,1,82,0)">
                        <g id="Head" transform="matrix(1,0,0,1,54,31)">
                            <path d="M8.262,34.49C3.654,29.081 0.536,22.453 1.057,15.025C2.558,-6.375 32.349,-1.667 38.143,9.134C43.938,19.935 43.25,47.333 35.76,49.263C32.774,50.033 26.411,48.147 19.935,44.244L24,73L0,73L8.262,34.49Z" style="fill:rgb(178,139,103);"/>
                        </g>
                        <path id="Hair" d="M75.135,48.389C76.054,61.186 78.484,67.585 82.426,67.585C88.339,67.585 93.355,63.831 95.95,63.831C97.841,63.831 97.419,66.198 96.165,67.952C95.131,69.4 90.094,70.796 90.094,73.04C90.094,75.285 94.073,73.548 94.073,74.879C94.073,77.081 94.773,81.221 90.951,81.221C87.084,81.221 75.995,79.812 74.094,74.071C72.868,70.367 72.075,62.691 71.716,51.042C71.481,51.014 71.242,51 71,51C67.686,51 65,53.686 65,57C65,58.682 65.692,60.203 66.808,61.292C65.419,63.252 63.863,65.299 62.08,67.411C45.232,63.393 46.653,31.835 67.707,30.462C71.627,28.822 75.697,28.638 79.132,29.621C85.866,30.198 91.879,32.252 93.583,33.471C93.583,39.846 92.348,41.738 81.797,41.571C79.204,42.94 77.211,45.298 75.135,48.389Z" style="fill:var(--foreground);"/>
                    </g>
                    <g id="Bottom-Standing-Skinny-Jeans" serif:id="Bottom/Standing/Skinny-Jeans" transform="matrix(1,0,0,1,0,187)">
                        <path id="Leg" d="M128,0L164.255,127.227L190.707,221L210,221L181.891,0L128,0Z" style="fill:currentColor;"/>
                        <path id="Leg1" serif:id="Leg" d="M118.304,0C117.466,65.574 114.606,101.34 113.726,107.298C112.845,113.256 99.532,151.156 73.786,221L93.773,221C126.549,153.997 144.846,116.096 148.662,107.298C152.479,98.5 164.259,62.734 182,0L118.304,0Z" style="fill:currentColor;"/>
                        <g id="Accessories-Shoe-Flat-Pointy" serif:id="Accessories/Shoe/Flat-Pointy" transform="matrix(1,0,0,1,72,199)">
                            <path id="Shoe" d="M0,40L1,19L22,19C31.958,26 44.958,31.667 61,36L61,40L23,40L10,38L10,40L0,40Z" style="fill:var(--secondary);"/>
                        </g>
                        <g id="Accessories-Shoe-Flat-Pointy1" serif:id="Accessories/Shoe/Flat-Pointy" transform="matrix(1,0,0,1,188,199)">
                            <path id="Shoe1" serif:id="Shoe" d="M0,40L1,19L22,19C31.958,26 44.958,31.667 61,36L61,40L23,40L10,38L10,40L0,40Z" style="fill:var(--secondary);"/>
                        </g>
                    </g>
                    <g id="Body-Lab-Coat" serif:id="Body/Lab-Coat" transform="matrix(1,0,0,1,22,82)">
                        <path id="Skin" d="M190.359,88.61L220.545,114.202C229.013,117.134 236.021,120.536 241.569,124.407C242.85,125.749 244.326,128.388 238.684,127.555C233.042,126.722 227.07,126.1 226.152,127.98C225.234,129.86 228.505,132.414 226.74,134.914C225.564,136.581 220.885,131.868 212.706,120.777L182.109,105.507L190.359,88.61ZM53.667,77.536L71.379,80.108C52.367,121.358 42.174,143.173 40.801,145.554C37.712,150.91 41.345,160.24 42.766,165.179C35.587,167.252 37.88,156.162 28.803,158.928C20.518,161.453 13.682,167.177 5.476,160.37C4.468,159.533 3.618,156.797 6.824,155.203C14.813,151.231 26.541,143.963 28.364,141.284C30.851,137.631 39.285,116.382 53.667,77.536Z" style="fill:rgb(178,139,103);"/>
                        <g id="Coat-Back" transform="matrix(0.996195,0.0871557,-0.0871557,0.996195,5.98645,-14.5618)">
                            <path d="M122.979,9.211L133.596,4.638C151.668,40.39 176.923,74.301 216.528,101.346L208.768,117.912C174.616,101.621 142.571,89.449 127.583,61.832C122.553,52.563 123.646,20.761 122.979,9.211Z" style="fill:var(--primary);"/>
                        </g>
                        <path id="Shirt" d="M90,110C121.438,113.333 146.184,113.333 164.236,110C166.473,109.587 166.826,105.842 165.788,103.301C149.636,63.724 138.56,29.192 138.56,1.703C135.597,3.197 130.41,3.421 123,2.374C103.086,30.703 93.933,63.206 90,110Z" style="fill:var(--secondary);"/>
                        <path id="Coat-Front" d="M118.049,0L126.348,0C128.281,11.365 134.376,165.263 153.191,215.606L51.385,215.606C53.592,169.487 71.003,114.087 88.64,67.728C73.044,81.999 59.452,106.181 47.862,140.273L28.793,135.378C42.971,74.281 72.122,29.375 116.246,0.659C116.342,0.438 116.437,0.219 116.532,0L117.266,0C117.536,-0.173 117.807,-0.346 118.079,-0.519L118.049,0Z" style="fill:var(--primary);"/>
                    </g>
                </g>
            </g>
        </g>
    </g>
</svg>
