<?xml version="1.0" encoding="UTF-8" standalone="no"?>
<!DOCTYPE svg PUBLIC "-//W3C//DTD SVG 1.1//EN" "http://www.w3.org/Graphics/SVG/1.1/DTD/svg11.dtd">
<svg width="100%" height="100%" viewBox="0 0 1789 415" version="1.1" xmlns="http://www.w3.org/2000/svg" xmlns:xlink="http://www.w3.org/1999/xlink" xml:space="preserve" xmlns:serif="http://www.serif.com/" style="fill-rule:evenodd;clip-rule:evenodd;stroke-linejoin:round;stroke-miterlimit:2;">
    <g transform="matrix(1,0,0,1,-66.902,-103)">
        <path d="M104,517C93.002,516.999 82.5,516.837 72.008,517.08C67.962,517.173 66.519,515.691 66.987,511.861C67.087,511.04 67,510.197 67,509.363C67,376.387 67,243.411 67.001,110.435C67.001,103.007 67.005,103.001 74.207,103.001C207.35,103 340.492,103 473.635,103.001C480.993,103.001 480.999,103.006 480.999,110.277C481.001,191.096 481.001,271.915 480.999,352.733C480.999,359.994 480.993,359.997 473.625,359.999C462.293,360.002 450.962,360.005 439.631,359.998C433.019,359.993 433.003,359.984 433.003,353.489C432.998,303.998 433,254.507 433,205.015C433,188.852 432.85,172.686 433.096,156.526C433.164,152.053 431.707,150.913 427.382,150.918C325.067,151.025 222.752,151.019 120.437,150.932C116.444,150.929 114.917,151.917 114.921,156.206C115.024,258.687 115.031,361.169 114.904,463.65C114.898,468.351 116.717,469.075 120.793,469.069C183.448,468.97 246.104,468.999 308.759,469.001C315.994,469.001 315.997,469.007 315.999,476.401C316.002,487.732 316.006,499.064 315.998,510.395C315.993,516.982 315.983,516.997 309.463,516.998C241.142,517.001 172.821,517 104,517Z" style="fill:var(--current)"/>
        <path d="M1117.66,374.636C1116.36,380.117 1113.13,381.729 1108.08,381.075C1104.97,380.671 1101.69,380.599 1098.61,381.089C1093.25,381.937 1091.12,379.334 1089.28,374.738C1078.93,348.946 1068.29,323.271 1057.71,297.57C1057.38,296.758 1056.67,296.099 1055,295.531L1055,301.227C1055,326.06 1054.91,350.893 1055.09,375.725C1055.11,379.841 1053.99,381.296 1049.78,381.085C1043.29,380.76 1036.77,380.772 1030.29,381.082C1026.16,381.279 1024.87,379.991 1024.91,375.788C1025.11,354.957 1025,334.123 1025,313.29C1025,289.957 1025.09,266.624 1024.91,243.293C1024.88,239.199 1025.97,237.742 1030.2,237.911C1038.03,238.224 1045.88,238.235 1053.7,237.899C1057.5,237.736 1059.41,239.121 1060.81,242.456C1068.81,261.531 1076.93,280.557 1085.02,299.59C1090.34,312.077 1095.67,324.556 1101.05,337.013C1101.53,338.135 1102.43,339.077 1103.83,341.106C1105.95,336.541 1107.75,332.934 1109.33,329.236C1121.75,300.173 1134.14,271.099 1146.49,242.008C1147.63,239.319 1149.04,237.811 1152.34,237.918C1160.33,238.176 1168.34,238.116 1176.34,237.946C1179.61,237.876 1181.07,238.643 1181.07,242.33C1180.96,287.161 1180.97,331.994 1181.05,376.826C1181.06,380.168 1179.86,381.137 1176.68,381.051C1170.02,380.872 1163.34,380.798 1156.68,381.076C1152.86,381.236 1151.91,379.829 1151.93,376.187C1152.07,351.189 1152,326.189 1152,301.19C1152,299.298 1152,297.407 1152,295.515C1151.43,295.416 1150.85,295.317 1150.28,295.218C1139.46,321.574 1128.65,347.93 1117.66,374.636Z" style="fill:var(--current)"/>
        <path d="M270.259,247.994C267.002,248.215 265.96,246.895 265.979,244.15C266.056,233.322 265.919,222.492 266.145,211.669C266.171,210.44 267.993,208.191 268.975,208.195C287.719,208.264 306.586,206.503 325.101,210.871C345.445,215.672 358.494,230.933 361.137,251.675C362.84,265.044 362.077,277.852 355.544,289.872C348.912,302.073 339.145,310.595 325.698,314.644C324.136,315.115 322.62,315.734 320.963,316.328C325.602,319.295 331.051,321.282 334.243,325.137C340.632,332.854 346.539,341.188 351.285,349.999C359.56,365.363 366.808,381.28 374.475,396.971C375.119,398.289 375.677,399.649 376.563,401.635C374.526,401.779 372.978,401.984 371.429,401.986C353.438,402.008 335.446,401.912 317.457,402.071C313.702,402.104 311.457,401.158 309.667,397.542C301.031,380.104 292.22,362.747 283.153,345.529C279.251,338.118 276.022,330.037 267.859,325.734C266.795,325.172 266.109,322.961 266.088,321.502C265.94,311.009 266.077,300.513 265.966,290.019C265.934,286.957 267.198,286.125 270.116,285.928C277.043,285.459 284.05,285.11 290.824,283.728C300.177,281.819 304.492,274.906 303.989,264.346C303.606,256.293 298.267,250.272 289.584,249.104C283.361,248.267 277.016,248.334 270.259,247.994Z" style="fill:var(--current)"/>
        <path d="M347,516.648L347,469.115L432.944,469.115L432.944,386.234L480.621,386.234L480.621,516.648L347,516.648Z" style="fill:var(--current)"/>
        <path d="M700.245,251.745C720.679,270.581 717.071,313.354 680.882,323.717C686.442,333.181 691.91,342.509 697.399,351.825C702.915,361.185 708.452,370.532 714.638,381C706.654,381 699.675,380.304 692.893,381.167C683.32,382.386 678,379.012 673.758,370.187C667.325,356.802 658.982,344.347 651.964,331.222C649.588,326.778 646.714,325.362 642.111,325.963C640.347,326.193 638.528,326 636,326C636,328.665 636,330.766 636,332.868C636,347.027 635.796,361.191 636.114,375.344C636.221,380.105 634.604,381.331 630.161,381.083C624.183,380.749 618.158,380.746 612.18,381.085C607.912,381.326 606.898,379.744 606.918,375.686C607.069,345.202 607,314.718 607,284.233C607,270.407 607.116,256.579 606.925,242.756C606.874,239.04 607.994,237.889 611.735,237.925C629.724,238.095 647.73,237.559 665.702,238.152C678.454,238.573 690.554,241.935 700.245,251.745M636,272.549L636,302.85C646.766,302.85 656.929,303.551 666.946,302.641C675.905,301.827 681.82,293.923 681.998,284.965C682.242,272.732 678.134,265.702 668.202,264.099C660.414,262.842 652.351,263.104 644.408,263.051C634.752,262.987 636.152,261.753 636,272.549Z" style="fill:var(--current)"/>
        <rect x="196" y="208.304" width="51.716" height="193.393" style="fill:var(--current)"/>
        <path d="M864.085,380.646C854.88,380.881 846.052,381.102 837.239,380.835C835.707,380.788 833.482,378.984 832.87,377.47C830.15,370.73 828.05,363.739 825.35,356.99C824.815,355.655 822.634,354.15 821.195,354.132C805.044,353.93 788.889,354.063 772.736,353.951C769.837,353.931 768.719,355.187 767.888,357.752C765.75,364.357 763.437,370.913 760.926,377.385C760.378,378.8 758.747,380.771 757.563,380.807C748.27,381.09 738.965,380.964 728.714,380.964C731.073,373.991 733.109,367.642 735.362,361.372C742.519,341.459 749.762,321.577 756.961,301.679C764.217,281.626 771.53,261.593 778.63,241.485C779.605,238.723 781.012,237.938 783.687,237.967C792.678,238.065 801.677,237.847 810.659,238.159C812.215,238.213 814.55,239.947 815.093,241.429C824.593,267.351 833.832,293.367 843.207,319.334C849.944,337.993 856.821,356.601 863.56,375.259C864.15,376.891 864.179,378.726 864.085,380.646M777.33,330L816.46,330C809.94,311.165 803.723,293.207 797.506,275.248C797.077,275.248 796.649,275.247 796.22,275.247C789.984,293.323 783.748,311.399 777.33,330Z" style="fill:var(--current)"/>
        <path d="M969,247.058L969,238.357L998.722,238.357C998.822,240.361 998.987,242.14 998.988,243.919C999.005,272.417 999.512,300.928 998.858,329.412C998.18,358.979 979.281,378.319 950.175,382.14C936.204,383.974 923.039,382.198 910.576,376.135C894.955,368.535 886.008,355.578 884.142,338.435C882.959,327.575 883.123,316.547 883.044,305.592C882.893,284.761 883.077,263.927 882.931,243.096C882.904,239.326 883.77,237.695 887.903,237.914C894.218,238.247 900.579,238.263 906.892,237.911C911.269,237.667 912.1,239.43 912.077,243.391C911.927,269.556 911.713,295.727 912.172,321.884C912.313,329.957 912.309,338.422 917.903,345.53C925.224,354.831 935.027,356.725 945.859,355.522C962.09,353.721 969.235,340.752 969.081,326.545C968.797,300.216 969,273.881 969,247.058Z" style="fill:var(--current)"/>
        <path d="M1836.14,243.706C1853.21,255.672 1856.23,269.379 1853.43,287.508C1850.53,306.317 1839.23,315.963 1818.7,319.598C1830.95,339.833 1843.03,359.779 1855.17,379.832C1846.52,382.763 1843.48,381.432 1838.88,373.711C1828.97,357.08 1818.9,340.546 1809.01,323.903C1807.3,321.025 1805.32,319.756 1801.85,319.917C1795.54,320.21 1789.19,319.997 1782.86,320.001C1776.01,320.004 1776,320.007 1776,326.633C1776,342.631 1776,358.629 1776,374.627L1776,380.532L1766.32,380.532C1766.22,378.914 1766.01,377.158 1766.01,375.401C1766,331.073 1766.07,286.745 1765.9,242.417C1765.88,237.881 1767.29,236.809 1771.58,236.907C1783.4,237.177 1795.25,236.767 1807.07,237.072C1817.02,237.329 1826.85,238.71 1836.14,243.706M1795.5,312C1802.28,311.655 1809.25,312.145 1815.8,310.719C1821.74,309.425 1828.11,307.13 1832.74,303.37C1843.6,294.556 1845.48,282.338 1842.57,269.145C1840.3,258.822 1833.95,252.102 1823.93,249.187C1819.06,247.77 1813.92,246.753 1808.87,246.569C1798.14,246.178 1787.38,246.45 1776.34,246.45L1776.34,312L1795.5,312Z" style="fill:var(--current)"/>
        <path d="M1251.74,332.244C1267.62,348.122 1283.24,363.75 1298.86,379.377C1298.54,379.826 1298.23,380.275 1297.91,380.724C1291.59,380.863 1285.06,383.033 1280.47,375.276C1278.09,371.248 1273.8,368.361 1270.42,364.91C1255.64,349.818 1240.88,334.704 1226.1,319.613C1224.88,318.364 1223.54,317.228 1221.24,315.104L1221.24,380.52L1211.48,380.52L1211.48,237.34L1220.88,237.34L1220.88,303.438C1222.77,302.127 1223.88,301.588 1224.7,300.758C1239.61,285.564 1254.52,270.36 1269.36,255.097C1273.41,250.938 1277.66,246.883 1281.09,242.24C1285.83,235.812 1292,236.706 1299.71,237.441C1276.07,261.857 1253.16,285.52 1230.2,309.225C1237.46,316.987 1244.48,324.49 1251.74,332.244Z" style="fill:var(--current)"/>
        <path d="M1710.22,377.359C1691.6,385.11 1673.47,385.418 1655.98,375.391C1646.25,369.814 1639.64,361.202 1637.2,350.279C1635.34,341.956 1634.26,333.302 1634.14,324.777C1633.76,297.798 1634,270.811 1634,243.827L1634,237.452L1643.72,237.452C1643.81,239.287 1643.99,241.211 1643.99,243.135C1644.01,271.618 1643.85,300.103 1644.09,328.583C1644.17,337.69 1645.58,346.741 1650.01,354.96C1655.98,366.05 1665.68,371.502 1677.88,372.995C1690.31,374.515 1701.76,372.662 1711.71,364.196C1718.28,358.599 1721.54,351.352 1722.84,343.263C1724.06,335.614 1724.83,327.814 1724.91,320.071C1725.16,294.589 1725,269.103 1725,243.618L1725,237.376L1734.72,237.376C1734.82,239.296 1734.99,241.07 1734.99,242.845C1735.01,271.494 1735.31,300.149 1734.86,328.791C1734.65,341.895 1732.93,355.116 1723.97,365.651C1720.2,370.085 1715.06,373.356 1710.22,377.359Z" style="fill:var(--current)"/>
        <path d="M1329,308C1329.67,321.062 1329.27,333.8 1331.29,346.141C1333.8,361.475 1347.94,371.921 1363.5,373.147C1371.41,373.77 1378.88,373.203 1386.23,370.345C1399.82,365.061 1405.81,354.126 1407.89,340.592C1408.77,334.89 1408.93,329.039 1408.95,323.254C1409.06,296.77 1409,270.285 1409,243.801L1409,237.443L1418.69,237.443C1418.79,239.141 1418.99,240.901 1418.99,242.662C1419.01,273.477 1419.52,304.304 1418.83,335.104C1418.31,358.253 1406.74,376.207 1382.94,381.354C1363.92,385.467 1345.93,382.772 1331.56,368.003C1323.33,359.538 1319.38,348.759 1319.19,337.367C1318.66,305.061 1319.01,272.741 1319.02,240.427C1319.02,239.606 1319.18,238.785 1319.31,237.488L1329,237.488L1329,308Z" style="fill:var(--current)"/>
        <path d="M1573,344L1573,380.657L1563,380.657L1563,374.069C1563,333.437 1562.9,292.804 1563.13,252.173C1563.16,246.971 1561.63,245.732 1556.68,245.888C1545.4,246.243 1534.11,246 1522.41,246L1522.41,237.414L1613.54,237.414L1613.54,246C1610.55,246 1607.47,246 1604.38,246C1595.56,246 1586.73,246.207 1577.91,245.91C1573.81,245.772 1572.91,247.291 1572.93,251.079C1573.06,281.885 1573,312.693 1573,344Z" style="fill:var(--current)"/>
        <path d="M1465.24,372.996C1481.5,372.999 1497.3,372.999 1513.66,372.999C1513.78,375.619 1513.88,377.845 1514,380.445C1512.41,380.658 1511.15,380.972 1509.88,380.974C1491.73,381.007 1473.58,380.917 1455.43,381.066C1451.88,381.095 1450.94,379.849 1450.94,376.447C1451.03,331.321 1451,286.195 1451.02,241.069C1451.02,239.939 1451.23,238.809 1451.38,237.359L1461,237.359L1461,243.888C1461,285.184 1461,326.48 1461,367.776C1461,370.419 1460.44,373.467 1465.24,372.996Z" style="fill:var(--current)"/>
    </g>
</svg>
