<?xml version="1.0" encoding="UTF-8" standalone="no"?>
<!DOCTYPE svg PUBLIC "-//W3C//DTD SVG 1.1//EN" "http://www.w3.org/Graphics/SVG/1.1/DTD/svg11.dtd">
<svg width="100%" height="100%" viewBox="0 0 772 433" version="1.1" xmlns="http://www.w3.org/2000/svg" xmlns:xlink="http://www.w3.org/1999/xlink" xml:space="preserve" xmlns:serif="http://www.serif.com/" style="fill-rule:evenodd;clip-rule:evenodd;stroke-linejoin:round;stroke-miterlimit:2;">
    <g transform="matrix(1,0,0,1,-0.0324844,0)">
        <g transform="matrix(0.10356,0,0,0.10356,0.0324844,0)">
            <path d="M1279.31,2936.98L1279.31,2988.58C1279.31,3137.02 1303.53,3199.62 1377.51,3246.66C1453.33,3295.06 1583.96,3309.24 1917.4,3309.24C2238.03,3309.24 2373.69,3301.46 2438.09,3277.25C2549.09,3235.24 2594.3,3143.42 2594.3,2956.61C2594.3,2806.8 2566.9,2734.18 2492.9,2685.77C2423.47,2642.37 2354.04,2634.14 1999.61,2622.72C1772.6,2616.33 1684,2611.77 1654.76,2603.53C1620.96,2595.32 1606.34,2574.77 1606.34,2534.11C1606.34,2455.56 1629.18,2448.69 1905.98,2448.69C2138.01,2448.69 2178.66,2451.88 2206.06,2468.33C2230.28,2482.95 2234.83,2497.12 2238.03,2556.94L2554.1,2556.94C2555.48,2535.93 2555.48,2513.54 2555.48,2506.7C2555.48,2379.71 2529.9,2312.11 2465.5,2268.27C2389.68,2216.67 2276.86,2202.5 1963.98,2202.5C1706.37,2202.5 1557.93,2208.89 1495.35,2221.69C1346.91,2254.12 1288.9,2345.92 1288.9,2550.56C1288.9,2787.14 1363.34,2854.75 1629.18,2862.98L1715.96,2866.18L1889.98,2874.41L2148.05,2884C2252.64,2885.36 2276.86,2901.81 2276.86,2966.2C2276.86,3061.22 2276.86,3061.22 1925.61,3061.22C1694.96,3061.22 1659.78,3058.02 1629.19,3038.82C1603.15,3022.39 1596.76,3001.39 1596.76,2936.98L1279.31,2936.98ZM2988.94,2769.35C2996.71,2700.4 3017.71,2693.98 3222.35,2693.98C3395,2693.98 3417.38,2709.99 3417.38,2829.18L3417.38,2869.39L3404.59,2869.39C3359.38,2820.96 3320.56,2809.99 3188.55,2809.99C2978.9,2809.99 2904.9,2814.56 2835.93,2834.21C2724.49,2863 2672.87,2938.8 2672.87,3075.84C2672.87,3256.26 2751.89,3312.44 3004.92,3312.44C3190.36,3312.44 3262.54,3306.05 3309.59,3286.85C3361.19,3265.84 3391.8,3238.44 3416.01,3188.65L3426.97,3188.65L3426.97,3293.24L3701.03,3293.24L3701.03,2834.21C3701.03,2695.37 3685.04,2637.35 3636.63,2585.73C3572.22,2521.34 3514.21,2509.92 3264.37,2509.92C3035.54,2509.92 2903.53,2524.54 2837.31,2555.15C2748.7,2599 2711.7,2658.35 2703.47,2769.35L2988.95,2769.35L2988.94,2769.35ZM3178.96,2970.78C3299.99,2970.78 3344.76,2972.6 3362.57,2978.99C3395,2990.41 3412.35,3012.81 3412.35,3043.4C3412.35,3111 3356.18,3130.63 3154.74,3130.63C3001.73,3130.63 2958.34,3112.82 2958.34,3051.63C2958.34,2988.58 3004.93,2970.78 3178.96,2970.78ZM3836.22,3293.23L4609.5,3293.23C4970.34,3291.42 4988.15,3290.03 5049.35,3269.03C5144.36,3237.07 5185.01,3158.05 5185.01,3005.03C5185.01,2832.37 5141.16,2769.35 4999.57,2745.6C5107.36,2714.99 5144.36,2651.95 5144.36,2498.94C5144.36,2303.91 5086.35,2236.32 4910.96,2223.52C4862.54,2219.88 4862.54,2219.88 4608.13,2218.51L3836.22,2218.51L3836.22,3293.23ZM4147.26,2642.37L4147.26,2471.54L4608.12,2471.54C4756.12,2472.9 4761.13,2472.9 4778.95,2476.1C4812.75,2484.33 4826.91,2508.53 4826.91,2553.77C4826.91,2592.12 4815.95,2619.53 4791.75,2629.59C4770.74,2639.18 4724.14,2642.37 4608.13,2642.37L4147.26,2642.37ZM4147.26,3035.62L4147.26,2856.6L4609.5,2856.6C4799.51,2857.96 4799.51,2857.96 4815.95,2861.6C4852.95,2869.38 4867.57,2892.22 4867.57,2941.99C4867.57,2987.22 4856.15,3011.42 4828.75,3022.39C4804.53,3033.81 4804.53,3033.81 4609.51,3035.62L4147.26,3035.62ZM5579.64,2769.34C5587.41,2700.39 5608.41,2693.97 5813.05,2693.97C5985.7,2693.97 6008.08,2709.98 6008.08,2829.17L6008.08,2869.38L5995.3,2869.38C5950.08,2820.95 5911.26,2809.98 5779.25,2809.98C5569.6,2809.98 5495.6,2814.55 5426.64,2834.2C5315.2,2862.99 5263.58,2938.79 5263.58,3075.83C5263.58,3256.25 5342.59,3312.43 5595.64,3312.43C5781.08,3312.43 5853.25,3306.04 5900.29,3286.84C5951.91,3265.83 5982.5,3238.43 6006.72,3188.64L6017.68,3188.64L6017.68,3293.23L6291.72,3293.23L6291.72,2834.2C6291.72,2695.36 6275.74,2637.34 6227.32,2585.72C6162.92,2521.33 6104.91,2509.91 5855.06,2509.91C5626.23,2509.91 5494.23,2524.53 5428,2555.14C5339.39,2598.99 5302.39,2658.34 5294.17,2769.34L5579.64,2769.34ZM5769.65,2970.77C5890.68,2970.77 5935.45,2972.59 5953.26,2978.98C5985.69,2990.4 6003.06,3012.8 6003.06,3043.39C6003.06,3110.99 5946.87,3130.62 5745.44,3130.62C5592.43,3130.62 5549.04,3112.81 5549.04,3051.62C5549.04,2988.57 5595.64,2970.77 5769.66,2970.77L5769.65,2970.77ZM7443.65,3293.23L7443.65,2530.92L7158.18,2530.92L7158.18,2837.39C7158.18,2978.98 7148.58,3019.19 7108.38,3054.82C7072.76,3085.42 7021.6,3096.85 6919.74,3096.85C6811.95,3096.85 6768.56,3086.78 6734.76,3054.82C6704.17,3025.59 6695.94,2990.41 6695.94,2878.96L6695.94,2530.92L6410.92,2530.92L6410.92,2878.96C6410.92,3086.77 6425.08,3144.79 6494.51,3216.06C6563.94,3285.02 6657.12,3312.43 6834.34,3312.43C7026.17,3312.43 7116.61,3275.42 7160,3179.05L7174.62,3179.05L7174.62,3293.23L7443.65,3293.23ZM2574.38,1545.11L2875.15,1545.11L2875.15,1251.44L2574.38,1251.44L2574.38,1545.11ZM3074.14,1545.11L3374.99,1545.11L3374.99,1251.44L3074.14,1251.44L3074.14,1545.11ZM2574.38,2007.21L2875.15,2007.21L2875.15,1713.55L2574.38,1713.55L2574.38,2007.21ZM3074.14,2007.21L3374.99,2007.21L3374.99,1713.55L3074.14,1713.55L3074.14,2007.21Z" style="fill-rule:nonzero;"/>
        </g>
        <g transform="matrix(0.10356,0,0,0.10356,0.0324844,0)">
            <path d="M7448.75,4172.35L7448.75,3665.42L856.81,3665.51L856.81,1796.16L2954.03,585.33L4342.71,1387.08L4596.17,948.08L2954.03,0L1403.52,895.17L1403.52,688.34L896.62,688.34L896.62,1187.83L0,1705.49L253.47,2144.51L349.89,2088.82L350.67,4172.43L7448.75,4172.35Z"/>
        </g>
    </g>
</svg>
